<?xml version="1.0" encoding="UTF-8" standalone="no"?>
<!-- Created with Inkscape (http://www.inkscape.org/) -->

<svg
   xmlns:dc="http://purl.org/dc/elements/1.1/"
   xmlns:cc="http://creativecommons.org/ns#"
   xmlns:rdf="http://www.w3.org/1999/02/22-rdf-syntax-ns#"
   xmlns:svg="http://www.w3.org/2000/svg"
   xmlns="http://www.w3.org/2000/svg"
   xmlns:xlink="http://www.w3.org/1999/xlink"
   xmlns:sodipodi="http://sodipodi.sourceforge.net/DTD/sodipodi-0.dtd"
   xmlns:inkscape="http://www.inkscape.org/namespaces/inkscape"
   width="112.88889mm"
   height="27.657778mm"
   viewBox="0 0 399.99998 97.999999"
   id="svg2"
   version="1.1"
   inkscape:version="0.91 r13725"
   sodipodi:docname="fs-logo.svg">
  <defs
     id="defs4" />
  <sodipodi:namedview
     id="base"
     pagecolor="#ffffff"
     bordercolor="#666666"
     borderopacity="1.0"
     inkscape:pageopacity="0.0"
     inkscape:pageshadow="2"
     inkscape:zoom="1.5162818"
     inkscape:cx="215.92154"
     inkscape:cy="46.01236"
     inkscape:document-units="px"
     inkscape:current-layer="layer1"
     showgrid="false"
     width="400mm"
     fit-margin-top="0"
     fit-margin-left="0"
     fit-margin-right="0"
     fit-margin-bottom="0"
     showguides="false"
     inkscape:window-width="1440"
     inkscape:window-height="785"
     inkscape:window-x="0"
     inkscape:window-y="0"
     inkscape:window-maximized="1" />
  <metadata
     id="metadata7">
    <rdf:RDF>
      <cc:Work
         rdf:about="">
        <dc:format>image/svg+xml</dc:format>
        <dc:type
           rdf:resource="http://purl.org/dc/dcmitype/StillImage" />
        <dc:title></dc:title>
      </cc:Work>
    </rdf:RDF>
  </metadata>
  <g
     inkscape:label="Layer 1"
     inkscape:groupmode="layer"
     id="layer1"
     transform="translate(-162.85718,-74.790787)">
    <image
       sodipodi:absref="/Users/Siddharth/Documents/Guessing_Game_Project/images/FSlogo.png"
       y="74.790787"
       x="162.85712"
       id="image3414"
       xlink:href="file:///Users/Siddharth/Documents/Guessing_Game_Project/images/FSlogo.png"
       preserveAspectRatio="none"
       height="98"
       width="400" />
    <g
       id="g3495">
      <path
         style="fill-opacity:1"
         d="m 186.08676,152.54079 c -11.20992,-11.1375 -21.02246,-21.46516 -21.80566,-22.95034 -1.81773,-3.44702 -1.81773,-8.15231 0,-11.59932 0.7832,-1.48519 10.59574,-11.81284 21.80566,-22.950343 18.459,-18.339756 20.70133,-20.25 23.77036,-20.25 3.06903,0 5.31136,1.910244 23.77036,20.25 11.20992,11.137503 21.02246,21.465153 21.80565,22.950343 0.7832,1.48518 1.42399,4.09503 1.42399,5.79966 0,1.70462 -0.64079,4.31447 -1.42399,5.79966 -0.78319,1.48518 -10.59573,11.81284 -21.80565,22.95034 -18.459,18.33975 -20.70133,20.25 -23.77036,20.25 -3.06903,0 -5.31136,-1.91025 -23.77036,-20.25 z m 29.29235,-15.70628 -5.49855,-5.49855 -5.48711,5.41895 -5.48711,5.41894 5.22539,5.62397 5.22539,5.62397 5.76027,-5.54436 5.76027,-5.54436 -5.49855,-5.49856 z m -5.41049,-27.04372 c 0.86836,0 6.21417,4.76433 11.87959,10.5874 l 10.30076,10.58741 3.58949,-3.58949 3.58949,-3.58949 -14.76673,-14.79139 -14.76673,-14.791387 -14.67009,14.788067 -14.67009,14.78807 3.416,3.52442 3.416,3.52442 10.55174,-10.51902 c 5.80345,-5.78546 11.26221,-10.51901 12.13057,-10.51901 z m 245.34716,52.93311 c -0.39579,-0.64041 0.0803,-0.94021 1.19099,-0.75 1.45054,0.24842 2.24276,-0.86674 3.66646,-5.16108 1.05534,-3.18325 1.41037,-5.61321 0.84754,-5.80082 -0.53271,-0.17757 0.5144,-1.9416 2.32692,-3.92007 2.25079,-2.45688 3.825,-3.39403 4.96584,-2.95624 0.91869,0.35253 1.36058,1.14219 0.98197,1.7548 -0.48351,0.78233 -0.9488,0.71003 -1.56338,-0.24294 -0.72568,-1.12523 -1.04787,-1.10079 -1.888,0.14324 -0.55716,0.825 -0.82428,2.2875 -0.59362,3.25 0.23066,0.9625 0.0827,1.75 -0.32871,1.75 -0.41145,0 -1.3082,1.9125 -1.99277,4.25 -2.16913,7.4066 -5.62727,10.89648 -7.61324,7.68311 z m -170.91907,-5.18311 c 1.68961,-5.63733 4.56449,-11.04451 5.41124,-10.17765 1.49587,1.53138 5.17244,11.63972 4.47651,12.30766 -0.35528,0.34099 -1.32666,-0.39251 -2.15862,-1.63001 -1.87469,-2.78849 -4.85953,-2.92274 -5.55847,-0.25 -0.28766,1.1 -1.04546,2 -1.68402,2 -0.73715,0 -0.91481,-0.82142 -0.48664,-2.25 z m 5.46041,-5.25 c 0,-0.825 -0.17686,-1.5 -0.39301,-1.5 -0.21616,0 -0.65203,0.675 -0.96862,1.5 -0.31658,0.825 -0.13972,1.5 0.39301,1.5 0.53274,0 0.96862,-0.675 0.96862,-1.5 z m 19,5.5 c -1.1,-1.1 -2,-3.125 -2,-4.5 0,-2.79766 3.1702,-6.5 5.56574,-6.5 2.0746,0 5.43426,1.83759 5.43426,2.97231 0,0.49607 -1.48337,0.66123 -3.29639,0.36702 -3.83078,-0.62165 -6.22551,1.44095 -5.24816,4.5203 0.80921,2.54961 3.18176,3.40489 5.70264,2.05576 2.71226,-1.45156 3.83485,-0.11462 1.39921,1.66637 -2.68861,1.96596 -5.20315,1.77239 -7.5573,-0.58176 z m 22,1.02851 c 0,-2.43703 5.12246,-12.30386 5.94715,-11.45534 1.39614,1.43647 5.07784,11.73838 4.41981,12.36722 -0.32207,0.30778 -1.26628,-0.45289 -2.09824,-1.69039 -1.87461,-2.78839 -4.92116,-2.92041 -5.76872,-0.25 -0.64594,2.03519 -2.5,2.79796 -2.5,1.02851 z m 6,-6.52851 c 0,-0.825 -0.17686,-1.5 -0.39301,-1.5 -0.21616,0 -0.65203,0.675 -0.96862,1.5 -0.31658,0.825 -0.13972,1.5 0.39301,1.5 0.53274,0 0.96862,-0.675 0.96862,-1.5 z m 18,0.875 0,-6.625 3.25,0.62801 c 3.37532,0.65223 6.75,3.79104 6.75,6.27823 0,2.33732 -4.70796,6.34376 -7.45455,6.34376 -2.47112,0 -2.54545,-0.19346 -2.54545,-6.625 z m 5.40384,3.31897 c 2.5211,-1.84347 1.76731,-6.09866 -1.15384,-6.51352 -2.01709,-0.28648 -2.25,0.10171 -2.25,3.75 0,4.35112 0.58411,4.82535 3.40384,2.76352 z m 17.79844,-2.94397 c 0.28959,-6.07934 0.37281,-6.25 3.04772,-6.25 3.3406,0 4.14786,1.87248 1,2.31955 -1.2375,0.17575 -2.25,0.70695 -2.25,1.18045 0,0.47349 1.0125,1.00469 2.25,1.18045 2.74577,0.38996 2.60159,2.19854 -0.21039,2.6391 -2.69767,0.42265 -2.61183,1.95714 0.13206,2.3609 3.86038,0.56803 3.35247,2.81955 -0.63605,2.81955 l -3.63105,0 0.29771,-6.25 z m 20.79772,-0.25 c 0,-8.17207 2.20485,-8.63934 4.71863,-1 l 0.98717,3 1.8971,-3.88869 c 1.04341,-2.13878 2.3471,-3.93878 2.8971,-4 0.55,-0.0612 1.13397,2.70119 1.29772,6.13869 0.18478,3.8792 -0.0997,6.25 -0.75,6.25 -0.57625,0 -1.08325,-1.9125 -1.12667,-4.25 l -0.0789,-4.25 -1.50439,4.25 c -0.82741,2.3375 -1.85582,4.25 -2.28536,4.25 -0.42953,0 -1.4733,-1.6875 -2.31948,-3.75 l -1.53852,-3.75 -0.0972,3.75 c -0.17076,6.58875 -2.0972,4.06264 -2.0972,-2.75 z m 27.96456,3.75 c -0.0195,-1.5125 -0.67854,-3.875 -1.46456,-5.25 -0.78602,-1.375 -1.44508,-3.0625 -1.46456,-3.75 -0.0651,-2.2949 2.00043,-1.28551 3.06944,1.5 l 1.05537,2.75 1.46736,-2.77967 c 0.80705,-1.52882 1.89264,-2.51683 2.41243,-2.19558 0.54152,0.33467 0.0942,2.2519 -1.04748,4.48983 -1.09591,2.14816 -1.99256,4.82367 -1.99256,5.94558 0,1.12191 -0.45,2.03984 -1,2.03984 -0.55,0 -1.01595,-1.2375 -1.03544,-2.75 z m 22.98585,1.19025 c -2.99149,-3.60453 3.05767,-10.57666 7.23626,-8.34035 2.53365,1.35597 2.25898,4.54536 -0.64122,7.44555 -2.83622,2.83622 -4.76645,3.09811 -6.59504,0.8948 z m 5.87011,-3.35524 c 1.05824,-3.03566 0.70134,-4.08501 -1.38936,-4.08501 -1.34672,0 -3.63242,5.4654 -2.68284,6.41498 1.37942,1.37942 3.12784,0.37903 4.0722,-2.32997 z m 28.25206,2.28013 c -2.68527,-3.41377 -2.61274,-4.9159 0.38197,-7.9106 2.96287,-2.96287 4.57654,-3.07002 7.68467,-0.51029 l 2.36078,1.94426 -4.5,-0.19426 c -4.15491,-0.17936 -4.52305,0.004 -4.80056,2.39134 -0.39666,3.41233 1.96887,5.42988 4.6709,3.9838 3.288,-1.75969 4.63345,-1.28355 2.62966,0.93061 -2.50361,2.76645 -5.95655,2.50633 -8.42742,-0.63486 z m 24.92742,0.63486 c -2.65469,-2.65469 -2.53003,-6.15344 0.31445,-8.82569 2.74412,-2.57797 4.46135,-2.72008 7.46304,-0.61761 4.62814,3.24167 1.76126,11.4433 -4,11.4433 -0.97762,0 -2.67749,-0.9 -3.77749,-2 z m 6.45633,-1.34441 c 2.72611,-1.99338 1.36701,-6.65559 -1.9402,-6.65559 -1.3946,0 -2.89067,0.83132 -3.48095,1.93426 -1.33879,2.50155 -1.32284,2.63522 0.53625,4.49431 1.91741,1.91741 2.53396,1.94607 4.8849,0.22702 z m 17.54367,-3.14975 0,-6.75584 3.18438,0.63687 c 8.8548,1.77096 9.27116,10.85355 0.56234,12.2668 l -3.74672,0.60801 0,-6.75584 z m 5.9748,3.49416 c 1.4448,0 2.04616,-3.09233 0.98643,-5.07245 -0.56738,-1.06015 -1.91576,-1.92755 -2.99641,-1.92755 -1.63415,0 -1.96482,0.69118 -1.96482,4.10699 0,3.33419 0.29764,3.99277 1.58179,3.5 0.86998,-0.33385 1.94684,-0.60699 2.39301,-0.60699 z m 17.434,1.62294 c -0.29063,-0.75739 -0.38901,-3.56989 -0.21861,-6.25 0.29538,-4.64596 0.44567,-4.87294 3.22648,-4.87294 1.60416,0 3.10416,0.5625 3.33333,1.25 0.24444,0.73333 -0.44444,1.25 -1.66667,1.25 -2.65615,0 -2.71444,1.60169 -0.0833,2.28975 1.1,0.28765 2,1.01514 2,1.61663 -3e-5,0.60149 -0.90003,1.09362 -2.00003,1.09362 -1.1,0 -2,0.39751 -2,0.88337 0,0.48585 0.9,1.11872 2,1.40638 1.1,0.28765 2,1.01514 2,1.61663 0,1.59674 -5.96819,1.34009 -6.5912,-0.28344 z m -273.4088,-40.06544 0,-18.557503 12.5,0 12.5,0 0,3.500003 0,3.5 -8,0 -8,0 0,4 0,4 8,0 8,0 0,3.5 0,3.5 -7.95619,0 -7.95619,0 -0.29381,7.25 -0.29381,7.25 -4.25,0.30749 -4.25,0.3075 0,-18.55749 z m 36.98983,16.1925 c -6.71466,-4.56996 -7.3935,-6.41591 -7.82805,-21.28636 l -0.39344,-13.463643 4.61583,0 4.61583,0 0,11.865143 c 0,10.48945 0.2403,12.17064 2.07258,14.5 2.53576,3.2237 7.0499,3.51237 9.92742,0.63486 1.78667,-1.78667 2,-3.33334 2,-14.5 l 0,-12.500003 4.5,0 4.5,0 0,12.288113 c 0,10.77644 -0.27679,12.8279 -2.25,16.676 -4.00321,7.80698 -14.63641,10.63428 -21.76017,5.78589 z m 28.67684,1.58333 c -0.36667,-0.36667 -0.66667,-8.69167 -0.66667,-18.5 l 0,-17.833333 4.5,0 4.5,0 0,14.500003 0,14.5 7.5,0 7.5,0 0,4 0,4 -11.33333,0 c -6.23334,0 -11.63334,-0.3 -12,-0.66667 z m 27.33333,-17.83333 0,-18.500003 4.5,0 4.5,0 0,14.500003 0,14.5 7.5,0 7.5,0 0,4 0,4 -12,0 -12,0 0,-18.5 z m 31.3106,16.42469 c -6.25568,-3.09653 -6.83394,-4.20475 -3.94592,-7.56227 l 2.44221,-2.83924 4.09557,2.30184 c 5.45307,3.0648 10.59754,2.70928 10.59754,-0.73236 0,-2.08446 -0.92077,-2.71794 -6.86518,-4.72315 -8.28563,-2.79496 -9.32536,-3.58922 -10.56216,-8.06851 -3.02799,-10.96649 9.26947,-17.960072 21.67734,-12.32793 4.67634,2.12267 5.11612,3.40907 2.31372,6.76794 -1.74796,2.09503 -2.0552,2.14429 -4.71674,0.75616 -3.47163,-1.81064 -9.96203,-1.96209 -10.59268,-0.24717 -0.91682,2.49307 0.49252,3.66907 6.98716,5.83035 8.2857,2.7573 11.25854,5.75249 11.25854,11.34316 0,2.27231 -0.70232,5.13417 -1.5607,6.35969 -3.79213,5.41403 -13.59358,6.87134 -21.1287,3.14149 z m 34.6894,-12.86719 0,-15.0575 -5,0 -5,0 0,-3.5 0,-3.500003 14.5,0 14.5,0 0,3.500003 0,3.5 -4.97327,0 -4.97326,0 -0.27674,14.75 -0.27673,14.75 -4.25,0.30749 -4.25,0.3075 0,-15.05749 z m 15,14.03214 c 0,-0.5007 3.33908,-8.7132 7.42017,-18.25 l 7.42017,-17.33964 4.39841,-0.297385 4.39842,-0.297382 7.68141,17.991217 c 4.22478,9.89517 7.68142,18.24149 7.68142,18.54738 0,0.30589 -1.98281,0.55617 -4.40625,0.55617 l -4.40625,0 -4.71803,-11.25 c -2.59491,-6.1875 -5.04496,-11.86159 -5.44454,-12.60908 -0.45824,-0.85721 -2.70979,3.29707 -6.0973,11.25 l -5.37078,12.60908 -4.27842,0 c -2.35314,0 -4.27843,-0.40966 -4.27843,-0.91036 z m 15.00081,-0.33964 c 9.8e-4,-1.48965 3.3096,-10.39375 4.18889,-11.27303 0.58782,-0.58783 4.8103,9.56 4.8103,11.56054 0,0.52937 -2.025,0.96249 -4.5,0.96249 -2.93377,0 -4.49972,-0.43507 -4.49919,-1.25 z m 33.4806,-0.14357 c -5.78032,-2.51865 -11.47026,-11.25249 -11.47026,-17.60643 0,-6.48262 5.75344,-15.16804 11.69111,-17.64896 6.44966,-2.694839 15.47478,-1.393868 20.04774,2.88988 2.75032,2.57638 2.75983,2.84121 0.21814,6.07246 l -2.03187,2.58309 -3.60768,-2.44823 c -4.37301,-2.96761 -7.76065,-3.09189 -12.10352,-0.44405 -6.20416,3.78268 -6.81316,12.22528 -1.24402,17.24581 3.72091,3.35436 8.13975,3.58334 12.91942,0.66945 l 3.40046,-2.07307 2.51952,2.51953 c 2.17141,2.1714 2.33257,2.74478 1.16643,4.14989 -4.05473,4.88566 -14.93234,6.95472 -21.50547,4.09063 z m 25.51859,-17.04893 0,-18.557503 4.5,0 4.5,0 0.0463,6.750003 0.0463,6.75 6.25603,-6.80912 6.25603,-6.809114 5.19616,0.309116 5.19615,0.309118 -7.05921,7.7279 -7.05922,7.72789 7.06075,9.95852 c 3.88337,5.47719 7.06071,10.21213 7.06071,10.5221 0,0.30997 -2.1375,0.55029 -4.75,0.53404 -4.72012,-0.0294 -4.78145,-0.0732 -9.75,-6.97045 -2.75,-3.8175 -5.2824,-6.9542 -5.62756,-6.97046 -1.6022,-0.0754 -2.77922,2.99945 -3.06256,8.00077 l -0.30988,5.46969 -4.25,0.30749 -4.25,0.3075 0,-18.55749 z"
         id="path3511"
         inkscape:connector-curvature="0" />
      <path
         style="fill-opacity:1"
         d="m 187.55259,154.04079 c -22.04706,-21.84403 -24.69547,-25.08812 -24.69547,-30.25 0,-5.16189 2.64841,-8.40598 24.69547,-30.250003 17.05311,-16.896076 19.25818,-18.75 22.30134,-18.75 3.036,0 5.18759,1.792751 21.30294,17.75 22.47979,22.259263 25.70025,26.175153 25.70025,31.250003 0,5.07485 -3.22046,8.99073 -25.70025,31.25 -16.11535,15.95725 -18.26694,17.75 -21.30294,17.75 -3.04316,0 -5.24823,-1.85393 -22.30134,-18.75 z m 28.24316,-5.97051 5.09861,-5.72051 -5.51862,-5.51862 -5.51862,-5.51862 -5.72741,5.72741 -5.72742,5.72741 5.44326,5.51172 c 2.99379,3.03144 5.76013,5.51172 6.14742,5.51172 0.3873,0 2.99855,-2.57423 5.80278,-5.72051 z m -17.46212,-27.77949 c 5.34776,-5.775 10.43272,-10.5 11.29991,-10.5 0.86719,0 6.18544,4.8375 11.81834,10.75 l 10.24163,10.75 3.74309,-3.67796 3.74309,-3.67795 -14.24151,-14.82205 c -7.83284,-8.15212 -14.58278,-14.947832 -14.99988,-15.101573 -0.4171,-0.153742 -7.19748,6.506233 -15.06752,14.799953 l -14.30917,15.07948 3.34392,3.45005 c 1.83916,1.89752 3.65014,3.45005 4.02441,3.45005 0.37427,0 5.05593,-4.725 10.40369,-10.5 z m 257.52349,42.44098 c 0,-0.58246 0.39901,-0.81241 0.88669,-0.51101 1.74315,1.07732 4.02045,-4.22506 4.58854,-10.68376 0.22057,-2.50774 4.31514,-7.74621 6.05471,-7.74621 0.80853,0 1.46317,0.7875 1.45475,1.75 -0.0131,1.49817 -0.15701,1.53414 -1,0.25 -0.87528,-1.33334 -1.09725,-1.33334 -1.99769,0 -0.55716,0.825 -0.82428,2.2875 -0.59362,3.25 0.23066,0.9625 0.0289,1.75 -0.44846,1.75 -0.47731,0 -1.37181,1.9125 -1.98777,4.25 -0.61597,2.3375 -1.76869,5.2625 -2.5616,6.5 -1.4756,2.30298 -4.39555,3.09414 -4.39555,1.19098 z m -172,-3.352 c 0,-2.04629 4.56573,-11.58898 5.54478,-11.58898 0.69697,0 1.93692,1.9125 2.75544,4.25 0.81853,2.3375 1.80897,5.0375 2.20099,6 0.44425,1.09071 0.26046,1.75 -0.48784,1.75 -0.66034,0 -1.43596,-0.9 -1.72362,-2 -0.33309,-1.27374 -1.36402,-2 -2.83899,-2 -1.43773,0 -2.5567,0.75843 -2.95076,2 -0.53034,1.67097 -2.5,2.92287 -2.5,1.58898 z m 6.36163,-7.08898 c -0.31659,-0.825 -0.70432,-1.5 -0.86163,-1.5 -0.15731,0 -0.54504,0.675 -0.86163,1.5 -0.3471,0.90454 -0.005,1.5 0.86163,1.5 0.8667,0 1.20873,-0.59546 0.86163,-1.5 z m 18.63837,5.5 c -2.79084,-2.79084 -2.53157,-6.43671 0.63486,-8.92742 3.10991,-2.44626 4.31594,-2.56026 6.92244,-0.65434 2.43564,1.78098 1.31305,3.11792 -1.39921,1.66636 -3.6056,-1.92965 -6.90845,0.97587 -5.6427,4.96389 0.7541,2.37595 3.18731,3.18098 5.6427,1.8669 2.71226,-1.45156 3.83485,-0.11462 1.39921,1.66637 -2.68861,1.96596 -5.20315,1.77239 -7.5573,-0.58176 z m 22,1.53751 c 0,-2.01262 4.39406,-11.53709 5.32185,-11.53553 1.46815,0.002 5.81083,10.79798 4.6358,11.52419 -0.47152,0.29141 -1.34571,-0.38276 -1.94266,-1.49817 -1.39281,-2.60249 -4.69256,-2.61924 -5.51499,-0.028 -0.54168,1.70668 -2.5,2.91105 -2.5,1.53751 z m 6,-7.03751 c 0,-0.825 -0.17686,-1.5 -0.39301,-1.5 -0.21616,0 -0.65203,0.675 -0.96862,1.5 -0.31658,0.825 -0.13972,1.5 0.39301,1.5 0.53274,0 0.96862,-0.675 0.96862,-1.5 z m 18,1.5 0,-6 3.37756,0 c 3.91779,0 5.87244,1.89481 5.87244,5.69265 0,3.1698 -3.41284,6.30735 -6.86078,6.30735 -2.25349,0 -2.38922,-0.34086 -2.38922,-6 z m 5.95432,2.55504 c 1.88844,-2.27544 0.89104,-6.00599 -1.70432,-6.37459 -2.01709,-0.28648 -2.25,0.10171 -2.25,3.75 0,4.29867 1.65391,5.39642 3.95432,2.62459 z m 17.71235,2.77829 c -0.36667,-0.36667 -0.66667,-3.06667 -0.66667,-6 l 0,-5.33333 3.55902,0 c 2.11803,0 3.30878,0.40488 2.94098,1 -0.33992,0.55 -1.52898,1 -2.64235,1 -2.73823,0 -1.83306,2.28416 1.21649,3.06975 l 2.42586,0.62493 -2.5,0.40266 c -3.12007,0.50253 -3.29607,3.28965 -0.23517,3.72415 1.24566,0.17682 2.0066,0.73932 1.69098,1.25 -0.6598,1.06759 -4.7963,1.25468 -5.78914,0.26184 z m 20.33333,-5.33333 c 0,-7.0145 2.05463,-8.25637 4.13616,-2.5 1.57084,4.34407 2.31676,4.39874 3.50464,0.25686 0.51156,-1.78372 1.70166,-3.39172 2.64466,-3.57332 1.46743,-0.2826 1.71454,0.54514 1.71454,5.74313 0,3.38222 -0.4431,6.07333 -1,6.07333 -0.55,0 -1.00988,-1.9125 -1.02196,-4.25 l -0.022,-4.25 -1.99581,4.39889 c -1.0977,2.4194 -2.20913,4.18558 -2.46985,3.92486 -0.26072,-0.26072 -1.12102,-2.24023 -1.91177,-4.3989 l -1.43769,-3.92485 -0.0705,4.25 c -0.0387,2.3375 -0.52042,4.25 -1.07042,4.25 -0.55556,0 -1,-2.66667 -1,-6 z m 28.74426,5.41093 c -0.40934,-0.40935 -0.74426,-1.81661 -0.74426,-3.12726 0,-1.31065 -0.68656,-3.71065 -1.52568,-5.33333 -0.83912,-1.62269 -1.07996,-2.95034 -0.53518,-2.95034 0.54477,0 1.52742,1.00326 2.18367,2.22947 l 1.19318,2.22948 0.99482,-2.22948 c 0.54715,-1.22621 1.61261,-2.22947 2.36768,-2.22947 1.09816,0 1.03411,0.65031 -0.3201,3.25 -0.93114,1.7875 -1.95777,4.52242 -2.28142,6.07759 -0.32364,1.55518 -0.92336,2.49268 -1.33271,2.08334 z m 22.89777,-0.59138 c -3.72313,-2.08357 -0.40286,-8.81955 4.34729,-8.81955 3.58794,0 4.85607,3.06082 2.65801,6.41549 -1.77402,2.70749 -4.68066,3.70499 -7.0053,2.40406 z m 5.22252,-3.42162 c 1.58256,-3.47334 1.42631,-4.39793 -0.74323,-4.39793 -2.02303,0 -4.77048,5.14062 -3.68561,6.89597 0.95168,1.53985 3.15539,0.29688 4.42884,-2.49804 z m 28.20803,1.96721 c -2.68527,-3.41377 -2.61274,-4.9159 0.38197,-7.9106 2.81222,-2.81222 4.36434,-3.03868 7.10275,-1.0363 2.45996,1.79876 1.30049,3.1112 -1.44874,1.63986 -1.67827,-0.89818 -2.44403,-0.72263 -4.10856,0.9419 -1.65217,1.65217 -1.83642,2.43713 -0.9575,4.0794 1.43725,2.68554 3.62786,3.43906 5.4944,1.88997 0.83129,-0.68991 1.83735,-0.92846 2.23569,-0.53011 0.94381,0.94381 -2.65088,3.56074 -4.89114,3.56074 -0.95496,0 -2.66895,-1.18569 -3.80887,-2.63486 z m 24.92742,0.63486 c -2.79084,-2.79084 -2.53157,-6.43671 0.63486,-8.92742 3.2938,-2.59091 4.83166,-2.60607 7.36514,-0.0726 2.7177,2.71769 2.60591,7.4622 -0.22251,9.44329 -2.99128,2.09518 -5.37488,1.95932 -7.77749,-0.44329 z m 6.06574,-1.03519 c 2.467,-1.3203 2.522,-5.57989 0.0889,-6.88207 -1.32828,-0.71087 -2.44917,-0.56473 -4,0.52152 -2.55234,1.78772 -2.7405,3.66699 -0.58318,5.82431 1.85909,1.85909 1.99275,1.87504 4.49431,0.53624 z m 17.93426,-2.96481 0,-6 3.4433,0 c 3.61781,0 6.5567,2.75655 6.5567,6.14992 0,2.26923 -4.67332,5.85008 -7.63486,5.85008 -2.22406,0 -2.36514,-0.3579 -2.36514,-6 z m 6.42857,2.42857 c 2.72468,-2.72468 1.2102,-6.42857 -2.62857,-6.42857 -1.43333,0 -1.8,0.81481 -1.8,4 0,4.35879 1.61352,5.24362 4.42857,2.42857 z m 17.57143,-2.42857 0,-6 3.05902,0 c 1.7847,0 2.80156,0.41657 2.44098,1 -0.33992,0.55 -1.26648,1 -2.05902,1 -2.33769,0 -1.64474,2.82165 0.80902,3.29426 l 2.25,0.43337 -2.25,0.13618 c -2.96411,0.17941 -3.20327,4.13619 -0.25,4.13619 1.1,0 2,0.45 2,1 0,0.55 -1.35,1 -3,1 -3,0 -3,0 -3,-6 z m -274,-35.4425 0,-18.557503 12.5,0 12.5,0 0,3.500003 0,3.5 -8,0 -8,0 0,4 0,4 8,0 8,0 0,3.5 0,3.5 -7.95619,0 -7.95619,0 -0.29381,7.25 -0.29381,7.25 -4.25,0.30749 -4.25,0.3075 0,-18.55749 z m 38.5,17.03085 c -7.29689,-3.24313 -9.4365,-8.96461 -9.47555,-25.33835 l -0.0245,-10.250003 4.5,0 4.5,0 0,11.565743 c 0,14.65906 1.20519,17.38783 7.6933,17.41894 5.34252,0.0256 6.3067,-2.52859 6.3067,-16.70719 l 0,-12.277493 4.5,0 4.5,0 0,12.184273 c 0,10.34378 -0.31803,12.84124 -2.1054,16.53345 -3.48366,7.19628 -12.68643,10.29656 -20.3946,6.87063 z m 27.16667,0.74498 c -0.36667,-0.36667 -0.66667,-8.69167 -0.66667,-18.5 l 0,-17.833333 4.5,0 4.5,0 0,14.500003 0,14.5 7.5,0 7.5,0 0,4 0,4 -11.33333,0 c -6.23334,0 -11.63334,-0.3 -12,-0.66667 z m 27.33333,-17.83333 0,-18.500003 4,0 4,0 0,14.500003 0,14.5 8,0 8,0 0,4 0,4 -12,0 -12,0 0,-18.5 z m 33.5,17.27846 c -1.65,-0.585 -4.24335,-1.93428 -5.76301,-2.99841 l -2.76301,-1.93477 2.0811,-2.92264 c 2.47562,-3.47669 3.16074,-3.56228 6.82559,-0.85275 3.90822,2.88948 10.48117,2.40258 10.93761,-0.81022 0.33656,-2.36893 0.15525,-2.48315 -9.20209,-5.79747 -6.92053,-2.45122 -8.61619,-4.47335 -8.61619,-10.27511 0,-4.02537 0.48324,-5.27589 2.95325,-7.6423 3.85139,-3.689869 11.11006,-4.556138 17.55446,-2.095 5.61821,2.14562 6.02486,2.84006 3.83443,6.54816 -1.85359,3.13788 -2.82096,3.65435 -3.81926,2.03907 -0.85762,-1.38765 -7.13173,-2.95207 -9.4295,-2.35119 -2.51216,0.65694 -3.53671,3.31952 -1.88012,4.88602 0.70771,0.66922 3.83529,1.94057 6.95018,2.82523 7.03722,1.99862 10.83656,6.01554 10.83656,11.45714 0,2.03542 -0.73381,4.74843 -1.63069,6.0289 -3.19059,4.5552 -11.9234,6.35799 -18.86931,3.89534 z m 32.5,-13.72096 0,-15.0575 -5,0 -5,0 0,-3.5 0,-3.500003 14.5,0 14.5,0 0,3.500003 0,3.5 -4.97327,0 -4.97326,0 -0.27674,14.75 -0.27673,14.75 -4.25,0.30749 -4.25,0.3075 0,-15.05749 z m 14.99425,14.1925 c -0.003,-0.4125 3.42586,-8.7375 7.62007,-18.5 l 7.62583,-17.750003 4.15777,0 4.15777,0 7.3483,17.250003 c 4.04156,9.4875 7.56468,17.8125 7.82914,18.5 0.34045,0.88501 -0.82125,1.25 -3.97856,1.25 l -4.45942,0 -5.31075,-12.53683 c -2.92091,-6.89525 -5.61756,-12.18275 -5.99254,-11.75 -0.37498,0.43276 -2.63781,5.51183 -5.0285,11.28683 -2.39069,5.775 -4.76556,11.0625 -5.27748,11.75 -0.9887,1.32779 -8.68189,1.77036 -8.69163,0.5 z m 15.00575,-0.0719 c 0,-1.35529 3.21062,-10.6165 3.97719,-11.47242 0.64374,-0.71878 5.02281,9.20556 5.02281,11.38326 0,0.50106 -2.025,0.91102 -4.5,0.91102 -2.475,0 -4.5,-0.36984 -4.5,-0.82186 z m 33.45863,-1.05781 c -9.88344,-4.48942 -13.91561,-16.29679 -8.92,-26.12033 5.34917,-10.51877 22.42516,-13.491979 29.81773,-5.19176 1.8138,2.0365 1.80543,2.15581 -0.36517,5.20414 l -2.22153,3.11985 -2.4654,-2.31612 c -3.73489,-3.50875 -11.29585,-3.27907 -15.03153,0.45661 -2.29958,2.29958 -2.77273,3.63607 -2.77273,7.83203 0,4.45061 0.39291,5.41037 3.26578,7.97728 3.9469,3.52656 8.27142,3.80227 13.13469,0.83742 l 3.40046,-2.07307 2.51952,2.51953 c 2.22517,2.22516 2.35363,2.71997 1.09954,4.23528 -2.18842,2.64426 -8.98158,5.35488 -13.41999,5.35488 -2.2,0 -5.81862,-0.82608 -8.04137,-1.83574 z m 25.54137,-16.56283 0,-18.557503 4.5,0 4.5,0 0.0476,6.750003 0.0476,6.75 6.266,-6.75 c 6.2137,-6.693748 6.31002,-6.750003 11.55831,-6.750003 l 5.29238,0 -7.20952,7.997373 -7.20953,7.99737 7.10358,10.06566 c 3.90697,5.53611 7.10358,10.26229 7.10358,10.50263 0,0.24033 -2.01454,0.43697 -4.47675,0.43697 -4.15372,0 -4.749,-0.34551 -8.25,-4.78844 -2.07529,-2.63364 -4.49903,-5.88996 -5.3861,-7.23627 -2.49676,-3.78933 -4.71755,-1.23341 -5.08973,5.85779 l -0.29742,5.66692 -4.25,0.30749 -4.25,0.3075 0,-18.55749 z"
         id="path3509"
         inkscape:connector-curvature="0" />
      <path
         style="fill-opacity:1"
         d="m 205.35712,170.89153 c -2.80807,-1.77074 -22.27236,-21.22087 -36.29061,-36.26419 -5.5318,-5.9363 -6.20939,-7.11353 -6.20939,-10.78792 0,-3.86311 0.69006,-4.86664 10.88964,-15.83655 16.76451,-18.030662 31.39547,-31.994554 34.28206,-32.719042 4.06175,-1.019433 7.30502,1.320461 20.35821,14.68766 28.58108,29.268632 28.47009,29.136762 28.47009,33.825882 0,3.9792 -0.5576,4.83407 -8.72223,13.37219 -29.51699,30.86726 -34.66059,35.62847 -38.47811,35.61749 -0.71481,-0.002 -2.64966,-0.85504 -4.29966,-1.89552 z m 10.50143,-22.60219 5.4331,-5.50144 -5.78855,-5.84959 -5.78854,-5.84959 -5.6122,5.88381 -5.61219,5.8838 5.39931,5.46723 c 2.96963,3.00697 5.65506,5.46723 5.96764,5.46723 0.31258,0 3.01322,-2.47565 6.00143,-5.50145 z m -16.76776,-28.2315 10.76633,-10.73295 11.00019,10.96609 11.0002,10.96609 3.66773,-3.66773 3.66773,-3.66773 -8.09116,-8.81541 c -4.45014,-4.84848 -11.05355,-11.73023 -14.67425,-15.292794 l -6.58309,-6.47738 -11.56392,11.477384 c -6.36016,6.31256 -12.91253,13.15529 -14.56083,15.20606 l -2.9969,3.72869 2.68584,3.52131 c 1.47721,1.93673 3.18758,3.52132 3.80082,3.52132 0.61324,0 5.95983,-4.82983 11.88131,-10.73295 z m 256.76633,42.67393 c 0,-0.58246 0.45,-0.7809 1,-0.44098 0.55,0.33992 1,0.81647 1,1.05901 0,0.24254 -0.45,0.44099 -1,0.44099 -0.55,0 -1,-0.47656 -1,-1.05902 z m 3.01187,0.0315 c 0.007,-0.25988 0.65879,-2.90322 1.44947,-5.87409 0.79068,-2.97086 1.34784,-5.72917 1.23813,-6.12956 -0.10971,-0.40039 0.8265,-2.13218 2.08047,-3.84842 2.49449,-3.41408 5.22893,-4.13408 5.20475,-1.37044 -0.013,1.48495 -0.15815,1.52408 -0.95836,0.25836 -1.11437,-1.76262 -2.77927,-0.50619 -3.33004,2.51303 -0.83453,4.57483 -2.98938,11.05897 -4.29432,12.92203 -0.77108,1.10088 -1.39663,1.78897 -1.3901,1.52909 z m -174.1513,-3.44527 c -0.91293,-0.91293 3.25982,-11.52753 4.53074,-11.52525 1.53409,0.003 5.68808,10.83091 4.44886,11.5968 -0.53613,0.33134 -1.22198,-0.34283 -1.52411,-1.49817 -0.72654,-2.7783 -4.69734,-2.80227 -5.93177,-0.0358 -0.50674,1.13564 -1.19241,1.79374 -1.52372,1.46243 z m 5.50106,-7.02723 c -0.31659,-0.825 -0.70432,-1.5 -0.86163,-1.5 -0.15731,0 -0.54504,0.675 -0.86163,1.5 -0.3471,0.90454 -0.005,1.5 0.86163,1.5 0.8667,0 1.20873,-0.59546 0.86163,-1.5 z m 19.27323,5.42742 c -3.40693,-2.67989 -3.39814,-6.18187 0.0223,-8.87236 2.59231,-2.03911 5.56408,-2.02357 7.7762,0.0407 1.536,1.43331 -0.10894,2.14825 -2.27524,0.98888 -3.62467,-1.93987 -6.90751,0.97881 -5.62961,5.00512 0.74895,2.35974 4.16845,3.40669 6.04367,1.85039 0.8119,-0.67382 1.8021,-0.8992 2.20044,-0.50086 0.81556,0.81559 -2.52178,3.56075 -4.32889,3.56075 -0.64571,0 -2.3597,-0.93266 -3.80887,-2.07258 z m 29.70885,0.27891 c -0.70189,-2.68403 -4.08215,-2.94629 -5.90171,-0.45791 -2.20068,3.00962 -2.28668,0.96589 -0.18929,-4.49842 1.10832,-2.8875 2.53668,-5.25 3.17413,-5.25 1.37925,0 5.21233,10.69416 4.197,11.70949 -0.38674,0.38674 -0.9628,-0.28968 -1.28013,-1.50316 z m -1.98208,-5.70633 c -0.31659,-0.825 -0.70432,-1.5 -0.86163,-1.5 -0.15731,0 -0.54504,0.675 -0.86163,1.5 -0.3471,0.90454 -0.005,1.5 0.86163,1.5 0.8667,0 1.20873,-0.59546 0.86163,-1.5 z m 17.63837,1.57945 0,-6.07945 3.3,0 c 4.1414,0 5.7,1.52512 5.7,5.57755 0,3.66966 -1.21901,4.91759 -5.75,5.88643 l -3.25,0.69493 0,-6.07946 z m 5.57294,3.15523 c 2.21207,-1.51469 2.39022,-4.27152 0.40438,-6.25736 -3.01546,-3.01546 -3.97732,-2.40539 -3.97732,2.52268 0,4.4188 1.01873,5.48366 3.57294,3.73468 z m 18.09373,2.09865 c -0.36667,-0.36667 -0.66667,-3.06667 -0.66667,-6 l 0,-5.33333 3.75,0.0997 c 3.20368,0.0852 3.38655,0.20081 1.25525,0.79384 -3.6729,1.02199 -3.91175,4.07965 -0.32857,4.20616 2.80785,0.0991 2.80965,0.10348 0.32857,0.79384 -3.55504,0.98919 -3.94945,4.10648 -0.51956,4.10648 1.50025,0 2.36655,0.43007 2.01431,1 -0.69429,1.12338 -4.8082,1.35846 -5.83333,0.33333 z m 49.07759,0.0776 c -0.40934,-0.40935 -0.74426,-1.81661 -0.74426,-3.12726 0,-1.31065 -0.68656,-3.71065 -1.52568,-5.33333 -0.83912,-1.62269 -1.0785,-2.95034 -0.53194,-2.95034 0.54656,0 1.64441,1.2375 2.43967,2.75 l 1.44592,2.75 0.69443,-2.75 c 0.38193,-1.5125 1.33219,-2.75 2.11169,-2.75 1.16647,0 1.11769,0.57511 -0.2757,3.25 -0.93114,1.7875 -1.95777,4.52242 -2.28142,6.07759 -0.32364,1.55518 -0.92336,2.49268 -1.33271,2.08334 z m 56.64818,-1.92758 c -2.50912,-2.50912 -2.58706,-5.17783 -0.23729,-8.12529 2.0022,-2.51148 8.84485,-1.95702 8.84485,0.7167 0,0.68608 -0.69608,0.85962 -1.75,0.43629 -0.9625,-0.3866 -2.279,-0.92004 -2.92556,-1.18541 -1.59981,-0.65662 -4.5188,4.00428 -3.75474,5.99539 0.84356,2.19828 4.21032,3.10642 6.00245,1.61909 0.8119,-0.67382 1.8021,-0.89921 2.20044,-0.50086 0.85836,0.85836 -2.56382,3.56074 -4.50917,3.56074 -0.74488,0 -2.48682,-1.1325 -3.87098,-2.51665 z m 25.06211,0.0621 c -3.1098,-3.10979 -3.09543,-4.99548 0.0621,-8.15301 1.8356,-1.8356 3.12103,-2.33721 4.75,-1.85357 4.82947,1.43386 6.26532,6.92916 2.73335,10.46113 -2.63921,2.63921 -4.56788,2.52302 -7.54545,-0.45455 z m 6.34545,-0.74545 c 2.53712,-2.53713 0.40307,-7.8 -3.16283,-7.8 -1.04474,0 -3.63717,3.20742 -3.63717,4.5 0,1.69251 2.72727,4.5 4.37143,4.5 0.67571,0 1.76857,-0.54 2.42857,-1.2 z m 17.84846,2.51512 c -0.35665,-0.35665 -0.64846,-3.04846 -0.64846,-5.98179 l 0,-5.33333 3.4433,0 c 3.38409,0 6.5567,2.71536 6.5567,5.61172 0,3.11001 -7.41972,7.63522 -9.35154,5.7034 z m 5.78011,-2.88655 c 2.66708,-2.66708 1.72187,-5.64395 -2.17857,-6.86118 -2.10741,-0.65767 -2.25,-0.41271 -2.25,3.86522 0,4.93028 1.48777,5.93676 4.42857,2.99596 z m 17.57143,-2.42857 0,-6 3.25,0.13618 c 2.35026,0.0985 2.6271,0.25616 1,0.56955 -1.37202,0.26426 -2.25,1.15952 -2.25,2.29427 0,1.13474 0.87798,2.03 2.25,2.29426 l 2.25,0.43337 -2.25,0.13618 c -3.01029,0.1822 -3.19286,4.13619 -0.19098,4.13619 1.13246,0 1.7809,0.45 1.44098,1 -0.33992,0.55 -1.71648,1 -3.05902,1 -2.31675,0 -2.44098,-0.30535 -2.44098,-6 z m -158,-0.5 c 0,-6.51682 2.15389,-7.59377 4,-2 0.63531,1.925 1.47981,3.5 1.87666,3.5 0.39686,0 1.29109,-1.575 1.98718,-3.5 2.01172,-5.56331 4.13616,-4.53606 4.13616,2 0,6.09251 -1.94264,7.71355 -2.09718,1.75 l -0.0972,-3.75 -1.53852,3.75 c -0.84618,2.0625 -1.87932,3.75 -2.29586,3.75 -0.41654,0 -1.45729,-1.6875 -2.31278,-3.75 l -1.55542,-3.75 -0.0515,3.75 c -0.0283,2.0625 -0.50154,3.75 -1.05154,3.75 -0.55,0 -1,-2.475 -1,-5.5 z m 50.61057,3.92755 c -0.99126,-2.58319 2.19066,-7.39693 4.88943,-7.39693 0.57566,0 0.5331,0.31176 -0.1003,0.73469 -1.79295,1.19719 -3.59599,5.28078 -3.00809,6.81283 0.30009,0.78202 0.15789,1.42186 -0.31601,1.42186 -0.47389,0 -1.13315,-0.7076 -1.46503,-1.57245 z m 6.02381,-1.39648 c 0.85264,-1.70915 1.29783,-3.76534 0.98932,-4.56931 -0.30851,-0.80397 -0.1732,-1.46176 0.3007,-1.46176 2.76452,0 1.31099,7.78748 -1.63233,8.74547 -0.8277,0.26939 -0.71995,-0.58504 0.34231,-2.7144 z M 283.52379,136.12412 c -0.36667,-0.36667 -0.66667,-8.69167 -0.66667,-18.5 l 0,-17.833333 12.5,0 12.5,0 0,3.459553 0,3.45956 -8.25,0.29044 -8.25,0.29045 -0.31037,3.75 -0.31036,3.75 8.06036,0 8.06037,0 0,3.45793 0,3.45794 -7.75,0.29206 -7.75,0.29207 -0.29381,7.25 -0.29381,7.25 -3.28952,0 c -1.80924,0 -3.58953,-0.3 -3.95619,-0.66667 z m 37.35326,-1.02796 c -1.91403,-0.99295 -4.50153,-3.33442 -5.75,-5.20326 -2.07692,-3.10895 -2.26993,-4.53322 -2.26993,-16.75 l 0,-13.352113 3.92053,0 3.92053,0 0.32947,13.082733 c 0.36743,14.58991 0.98985,15.91727 7.4639,15.91727 5.41014,0 6.36557,-2.50994 6.36557,-16.72251 l 0,-12.277493 4.59811,0 4.59812,0 -0.34812,13.428313 c -0.37615,14.51012 -1.00266,16.35811 -7.08541,20.89953 -3.70298,2.76468 -11.37907,3.24132 -15.74277,0.97753 z m 27.98007,-16.80537 0,-18.500003 4,0 4,0 0,14.500003 0,14.5 7.5,0 7.5,0 0,4 0,4 -11.5,0 -11.5,0 0,-18.5 z m 27.69757,17.86423 c -0.38366,-0.38366 -0.69757,-8.72257 -0.69757,-18.5309 l 0,-17.833333 4,0 4,0 0,14.500003 0,14.5 8.06037,0 8.06036,0 -0.31036,3.75 -0.31037,3.75 -11.05243,0.2809 c -6.07884,0.1545 -11.36634,-0.033 -11.75,-0.41667 z m 31.80243,-1.27707 c -2.2,-1.0279 -4.78674,-2.48051 -5.74832,-3.22803 -1.64532,-1.27906 -1.60896,-1.53307 0.61704,-4.31126 2.35817,-2.94317 2.37374,-2.94664 5.12522,-1.1438 6.47185,4.24052 12.96899,3.85981 12.31674,-0.72173 -0.24119,-1.69422 -1.73252,-2.66906 -6.66753,-4.35841 -8.46097,-2.89635 -11.14315,-5.49009 -11.14315,-10.77574 0,-9.05529 8.16009,-13.576108 19.04619,-10.551886 1.95041,0.541836 4.37958,1.594536 5.39815,2.339336 1.79556,1.31294 1.79638,1.44827 0.027,4.44353 -1.70734,2.8903 -1.99073,3.0047 -4.39815,1.77553 -4.51356,-2.30452 -8.45442,-2.72942 -10.59268,-1.14209 -3.03496,2.253 -0.8709,4.61982 6.46297,7.06853 10.05492,3.35723 13.36237,9.1591 9.49007,16.64729 -2.92132,5.64921 -12.32037,7.51583 -19.93358,3.95873 z m 34.16667,1.24617 c -0.36667,-0.36667 -0.66667,-7.11667 -0.66667,-15 l 0,-14.33333 -5,0 -5,0 0,-3.5 0,-3.500003 14.5,0 14.5,0 0,3.500003 0,3.5 -5.5,0 -5.5,0 0,15 0,15 -3.33333,0 c -1.83334,0 -3.63334,-0.3 -4,-0.66667 z m 14.33333,0.168 c 0,-0.33751 3.44753,-8.68839 7.66119,-18.5575 l 7.66118,-17.943833 4.143,0 4.14299,0 7.44582,17.617913 c 4.0952,9.68985 7.59582,18.01485 7.77915,18.5 0.52097,1.37861 -7.473,1.03412 -8.53757,-0.36791 -0.52203,-0.6875 -3.11476,-6.32488 -5.76162,-12.5275 -2.64687,-6.20262 -5.04245,-11.04752 -5.32352,-10.76645 -0.28107,0.28107 -2.81092,5.80594 -5.62188,12.27749 l -5.11084,11.76646 -4.23895,0.30749 c -2.33142,0.16913 -4.23895,0.0314 -4.23895,-0.30616 z m 15.46838,-2.25133 c 0.37686,-1.5125 1.45765,-4.52718 2.40175,-6.6993 l 1.71656,-3.94929 2.20665,6.05197 c 1.21366,3.32857 2.20666,6.34326 2.20666,6.69929 0,0.35603 -2.07378,0.64733 -4.60841,0.64733 -4.52679,0 -4.59627,-0.0487 -3.92321,-2.75 z m 32.99025,0.87033 c -4.666,-2.11947 -9.2099,-7.08435 -10.01915,-10.94741 -0.30797,-1.4701 -0.72409,-3.49246 -0.92471,-4.49413 -0.6261,-3.12593 2.10249,-11.6401 4.59936,-14.35163 5.491,-5.963094 14.9454,-7.848274 22.38587,-4.46368 6.24817,2.84223 7.09856,4.40791 4.38649,8.07618 l -2.26055,3.05755 -2.2507,-2.11442 c -1.32754,-1.24715 -4.11094,-2.32411 -6.78597,-2.62562 -4.16516,-0.46948 -4.82307,-0.22338 -8.06226,3.01582 -2.76354,2.76354 -3.52701,4.32699 -3.52701,7.22272 0,4.69165 2.57553,9.08582 6.20709,10.59007 3.48286,1.44264 9.39286,0.58624 11.95488,-1.73237 1.8278,-1.65413 2.03236,-1.61363 4.54596,0.89997 3.15338,3.15338 2.41314,4.54141 -4.10458,7.69658 -5.21698,2.5255 -10.82953,2.58473 -16.14472,0.17037 z m 26.20804,1.213 c -0.36667,-0.36667 -0.66667,-8.69167 -0.66667,-18.5 l 0,-17.833333 4,0 4,0 0.0318,7.250003 0.0318,7.25 6.97421,-7.25 c 6.86017,-7.131513 7.0571,-7.250003 12.04927,-7.250003 l 5.07512,0 -7.17403,7.945123 c -4.77326,5.28629 -6.91096,8.3818 -6.38791,9.25 0.43237,0.71768 2.88364,4.22988 5.44727,7.80488 2.56362,3.575 5.45344,7.7375 6.42181,9.25 l 1.76068,2.75 -4.55656,0 c -4.41923,0 -4.69884,-0.18839 -9.27682,-6.25 -2.59615,-3.4375 -5.08681,-6.66687 -5.53482,-7.17637 -0.48226,-0.54846 -1.64011,-0.17927 -2.83819,0.90498 -1.55069,1.40335 -2.02363,3.08055 -2.02363,7.17637 l 0,5.34502 -3.33333,0 c -1.83334,0 -3.63334,-0.3 -4,-0.66667 z"
         id="path3507"
         inkscape:connector-curvature="0" />
      <path
         style="fill-opacity:1"
         d="m 205.35712,170.95289 c -4.92354,-3.00405 -40.90677,-40.99362 -41.89466,-44.2306 -0.52621,-1.72423 -0.52621,-4.14464 0,-5.87724 1.14838,-3.78114 39.20151,-43.317402 43.34388,-45.033231 2.42057,-1.002629 3.66081,-1.010992 6.00383,-0.04048 1.62417,0.672756 12.08667,10.698388 23.25,22.279182 l 20.29695,21.05599 0,4.67936 0,4.67935 -20,20.76497 c -18.64584,19.35902 -23.41456,23.56631 -26.70034,23.55686 -0.71481,-0.002 -2.64966,-0.82743 -4.29966,-1.83416 z m 10.47099,-22.63273 5.40267,-5.47063 -5.43683,-5.91643 c -2.99026,-3.25405 -5.66183,-5.91644 -5.93683,-5.91644 -0.275,0 -2.94657,2.66239 -5.93683,5.91644 l -5.43683,5.91643 5.40267,5.47063 c 2.97147,3.00884 5.65841,5.47063 5.97099,5.47063 0.31258,0 2.99952,-2.46179 5.97099,-5.47063 z m -16.73732,-28.26232 10.76633,-10.73295 10.76633,10.73295 c 5.92148,5.90312 11.29858,10.73295 11.94911,10.73295 0.65053,0 2.36201,-1.54605 3.80329,-3.43567 2.03189,-2.66394 2.39496,-3.84319 1.61639,-5.25 -0.55226,-0.99788 -7.11782,-7.88933 -14.59013,-15.31433 L 209.81609,93.290787 195.33661,107.85888 c -7.96372,8.01245 -14.47949,15.06543 -14.47949,15.67328 0,1.57216 4.95314,7.25863 6.32256,7.25863 0.62963,0 5.98963,-4.82983 11.91111,-10.73295 z m 260.19446,41.54549 c 2.2257,-8.14523 2.60333,-9.95262 2.21181,-10.58611 -0.24726,-0.40008 0.64878,-2.0772 1.99122,-3.72693 l 2.44078,-2.9995 -1.01122,2.75 c -0.55617,1.5125 -0.70736,2.75 -0.33597,2.75 0.37139,0 0.13525,0.54 -0.52475,1.2 -0.66,0.66 -1.2118,1.8975 -1.22622,2.75 -0.0144,0.8525 -0.92185,3.35 -2.01649,5.55 -1.09465,2.2 -1.78277,3.24064 -1.52916,2.31254 z m -149.91148,-4.20499 c -2.92235,-2.92235 -3.10446,-4.32333 -0.95995,-7.38505 1.81847,-2.59622 6.55208,-3.00128 8.4433,-0.7225 1.42579,1.71797 -0.0371,2.06289 -1.69934,0.40066 -1.67617,-1.67617 -5.22013,-0.0697 -5.91,2.67897 -1.06222,4.23221 3.42404,7.20567 6.39267,4.23703 0.65084,-0.65083 1.49834,-0.86833 1.88334,-0.48333 0.90549,0.9055 -0.57614,2.26353 -3.40002,3.11638 -1.63659,0.49426 -2.90582,0.002 -4.75,-1.84216 z m 175.70586,0.83574 c -2.47805,-1.73569 -3.08085,-7.18495 -1.02251,-9.24329 1.4868,-1.4868 7.44579,-1.58215 8.34112,-0.13347 1.08425,1.75435 -0.20315,2.16148 -2.43246,0.76925 -1.80879,-1.1296 -2.36738,-1.02151 -4.20207,0.81318 -3.83937,3.83938 0.22228,8.95798 5.05564,6.37125 1.29812,-0.69473 2.03777,-0.72761 2.03777,-0.0906 0,1.01156 -3.15943,3.07037 -4.71175,3.07037 -0.46378,0 -1.84337,-0.70052 -3.06574,-1.55671 z m 24.29414,-0.83574 c -2.92235,-2.92235 -3.10446,-4.32333 -0.95995,-7.38505 0.99418,-1.41938 2.59449,-2.2225 4.42858,-2.2225 7.21354,0 8.26316,9.38824 1.28137,11.46112 -1.62897,0.48364 -2.9144,-0.018 -4.75,-1.85357 z m 6.28335,-0.80755 c 1.64482,-1.64482 1.50859,-5.299 -0.25201,-6.76018 -2.07248,-1.72 -5.43645,-0.33241 -6.15733,2.53981 -1.06572,4.24617 3.42592,7.20378 6.40934,4.22037 z m -229.4582,-3.29802 c 1.18701,-3.02391 2.63181,-5.49891 3.21066,-5.5 1.22264,-0.002 4.97402,9.80486 4.08903,10.68986 -0.32693,0.32693 -0.87815,-0.14499 -1.22494,-1.04871 -0.78906,-2.05627 -5.00397,-2.16068 -5.77818,-0.14313 -0.31658,0.825 -0.99841,1.5 -1.51518,1.5 -0.51677,0 0.0316,-2.47411 1.21861,-5.49802 z m 4.01983,-1.00198 c -0.31659,-0.825 -0.70432,-1.5 -0.86163,-1.5 -0.15731,0 -0.54504,0.675 -0.86163,1.5 -0.3471,0.90454 -0.005,1.5 0.86163,1.5 0.8667,0 1.20873,-0.59546 0.86163,-1.5 z m 42.89494,1 c 1.11433,-3.025 2.42846,-5.5 2.92028,-5.5 0.8724,0 4.82315,8.25913 4.82315,10.0829 0,0.5044 -0.45,0.9171 -1,0.9171 -0.55,0 -1,-0.675 -1,-1.5 0,-0.91545 -0.93256,-1.5 -2.39301,-1.5 -1.31616,0 -2.65203,0.675 -2.96862,1.5 -0.31658,0.825 -0.98786,1.5 -1.49173,1.5 -0.50387,0 -0.004,-2.475 1.10993,-5.5 z m 4.10726,-0.99426 c -0.31537,-0.82184 -0.97625,-1.24528 -1.46861,-0.94098 -1.41193,0.87261 -1.04399,2.43524 0.5734,2.43524 0.89208,0 1.24351,-0.5866 0.89521,-1.49426 z m 17.63617,0.99426 0,-5.5 3.3,0 c 4.12083,0 5.7,1.52376 5.7,5.5 0,3.97623 -1.57917,5.5 -5.7,5.5 l -3.3,0 0,-5.5 z m 6.42857,2.92857 c 2.23142,-2.23142 1.95052,-4.13408 -0.88459,-5.99172 -3.14777,-2.06249 -4.54398,-1.15436 -4.54398,2.9555 0,4.86525 2.30843,6.15636 5.42857,3.03622 z m 16.57143,-2.92857 0,-5.5 3.25,0.13618 c 2.35026,0.0985 2.6271,0.25616 1,0.56955 -1.37202,0.26426 -2.25,1.15952 -2.25,2.29427 0,1.13474 0.87798,2.03 2.25,2.29426 l 2.25,0.43337 -2.25,0.13618 c -1.50928,0.0914 -2.25,0.77171 -2.25,2.06664 0,1.20687 0.84335,2.09288 2.25,2.36381 1.6271,0.3134 1.35026,0.47107 -1,0.56955 l -3.25,0.13619 0,-5.5 z m 21,0 c 0,-6.8567 2.14081,-7.47571 4.32304,-1.25 l 1.4897,4.25 1.74532,-4.25 c 2.51365,-6.12094 4.44194,-5.5783 4.44194,1.25 0,6.39745 -1.96142,7.57678 -2.07895,1.25 l -0.0789,-4.25 -1.50439,4.25 c -0.82741,2.3375 -1.85582,4.25 -2.28536,4.25 -0.42953,0 -1.4733,-1.6875 -2.31948,-3.75 l -1.53852,-3.75 -0.0972,3.75 c -0.15456,5.96355 -2.0972,4.34251 -2.0972,-1.75 z m 29.03608,4.21016 c -0.0199,-0.98441 -0.94523,-3.57191 -2.0564,-5.75 -1.11118,-2.17809 -1.57555,-3.96016 -1.03194,-3.96016 0.54361,0 1.59264,1.15327 2.33118,2.56282 l 1.3428,2.56282 1.22658,-2.69205 c 2.10272,-4.61496 2.22624,-2.0627 0.17607,3.63803 -1.07372,2.98561 -1.96845,4.62295 -1.98829,3.63854 z m 21.59775,-0.22201 c -0.69799,-1.81892 1.14156,-6.18799 2.88747,-6.85795 0.91282,-0.35029 0.85133,0.32011 -0.22777,2.48322 -0.81299,1.62968 -1.22574,3.62084 -0.91723,4.42481 0.30851,0.80397 0.1732,1.46177 -0.3007,1.46177 -0.47389,0 -1.12269,-0.68034 -1.44177,-1.51185 z m 5.97901,-1.02003 c 0.89073,-1.35941 1.38435,-3.37086 1.09695,-4.46989 -0.60643,-2.31898 0.79521,-2.73056 1.65638,-0.48638 0.71923,1.87427 -1.16197,6.19581 -3.00494,6.90303 -1.03172,0.3959 -0.96988,-0.0825 0.25161,-1.94676 z m 77.38716,-3.02849 0,-5.56036 3.7429,0.31036 c 7.96152,0.66018 7.71181,10.81037 -0.26595,10.81037 l -3.47695,0 0,-5.56037 z m 6.8,3.36037 c 1.66087,-1.66088 1.50009,-4.35706 -0.37143,-6.22857 -2.92677,-2.92677 -4.42857,-1.93364 -4.42857,2.92857 0,3.66666 0.33333,4.5 1.8,4.5 0.99,0 2.34,-0.54 3,-1.2 z m 17.2,-3.3 0,-5.5 3.25,0.0997 c 2.9992,0.092 3.05708,0.15334 0.75,0.79508 -1.375,0.38247 -2.5,1.32983 -2.5,2.10524 0,0.7754 1.125,1.69892 2.5,2.05225 l 2.5,0.64243 -2.5,0.40266 c -1.375,0.22146 -2.5,1.05737 -2.5,1.85757 0,0.8002 1.125,1.76785 2.5,2.15032 2.30708,0.64174 2.2492,0.7031 -0.75,0.79509 l -3.25,0.0997 0,-5.5 z m -234.35745,-17.4764 c -1.5716,-0.49946 -3.75517,-1.72053 -4.85238,-2.7135 -4.09239,-3.70356 -4.79017,-6.65488 -4.79017,-20.26044 l 0,-13.049663 4,0 4,0 0,12.389213 c 0,14.1491 1.00326,16.65935 6.72315,16.82198 6.37322,0.1812 8.26258,-4.26422 8.27127,-19.46119 l 0.006,-9.750003 4.11583,0 4.11583,0 -0.39344,13.463643 c -0.4241,14.51314 -1.04953,16.36515 -7.03577,20.83453 -2.95,2.20249 -9.96796,3.05766 -14.1599,1.72543 z m 88.12149,-0.0193 c -1.50477,-0.45309 -4.30789,-1.79532 -6.22916,-2.98272 l -3.4932,-2.15892 2.16722,-2.93132 c 1.19197,-1.61223 2.26606,-2.93132 2.38687,-2.93132 0.12081,0 2.43933,1.15161 5.15227,2.55913 5.26201,2.73003 9.58612,2.61841 10.69686,-0.27613 0.9239,-2.40765 -1.2398,-4.16751 -7.28422,-5.92467 -7.39909,-2.15097 -11.16068,-5.9078 -11.16068,-11.14655 0,-9.73511 11.09322,-14.057629 22.35829,-8.71201 4.17044,1.97901 4.32119,2.43953 1.81266,5.53744 -1.82528,2.25413 -1.83872,2.25508 -6.52944,0.46368 -3.7411,-1.42874 -5.2046,-1.56536 -7.17095,-0.66943 -4.9079,2.23619 -2.98444,4.91993 5.51496,7.69481 6.85391,2.23767 11.01448,6.18367 11.01448,10.44646 0,8.97309 -8.97619,14.12081 -19.23596,11.03155 z m 95.87322,-0.4691 c -8.33998,-2.97311 -12.16865,-9.51203 -11.44305,-19.54338 0.31878,-4.407 1.09689,-6.68467 3.24644,-9.50288 5.27791,-6.919691 15.00016,-9.291483 23.05935,-5.62544 5.97977,2.72014 7.0906,4.45722 4.83276,7.55727 -2.23361,3.06677 -2.82558,3.12336 -6.05989,0.57925 -1.57163,-1.23625 -4.05678,-2 -6.50773,-2 -7.86589,0 -13.29596,9.18271 -9.6481,16.31574 2.99195,5.85045 11.15162,7.62057 16.33469,3.54357 l 2.72144,-2.14069 2.5834,2.5834 c 3.10171,3.10171 2.3398,4.50473 -4.15322,7.64794 -4.88016,2.36245 -9.47656,2.54218 -14.96609,0.58522 z m -223.63726,-17.53518 0,-18.000003 12.5,0 12.5,0 0,3.500003 0,3.5 -8.5,0 -8.5,0 0,4 0,4 8,0 8,0 0,3.5 0,3.5 -8,0 -8,0 0,7 0,7 -4,0 -4,0 0,-18 z m 66,0 0,-18.000003 4,0 4,0 0,14.500003 0,14.5 7.5,0 7.5,0 0,3.5 0,3.5 -11.5,0 -11.5,0 0,-18 z m 27,0 0,-18.000003 4,0 4,0 0,14.500003 0,14.5 8,0 8,0 0,3.5 0,3.5 -12,0 -12,0 0,-18 z m 66,3.5 0,-14.5 -5,0 -5,0 0,-3.5 0,-3.500003 14.5,0 14.5,0 0,3.500003 0,3.5 -5.5,0 -5.5,0 0,14.5 0,14.5 -4,0 -4,0 0,-14.5 z m 18.62817,6.25 c 1.95377,-4.5375 5.37392,-12.6375 7.60033,-18 l 4.04801,-9.750003 4.11174,0.02011 4.11175,0.02011 7.67419,18.031583 7.6742,18.03159 -4.48571,-0.3017 -4.48571,-0.30169 -5.03947,-12 c -2.77172,-6.6 -5.15007,-12.11854 -5.28523,-12.26341 -0.13517,-0.14488 -2.63113,5.36762 -5.54659,12.25 l -5.30083,12.51341 -4.3145,0 -4.31449,0 3.55231,-8.25 z m 11.94986,6.00416 c 0.39204,-1.23522 1.44509,-3.97009 2.3401,-6.07749 l 1.62731,-3.83165 2.18671,6.07749 2.18672,6.07749 -4.52682,0 c -4.23693,0 -4.48118,-0.14383 -3.81402,-2.24584 z m 58.42197,-15.75416 0,-18.000003 4,0 4,0 0,7.000003 c 0,3.85 0.3375,6.97449 0.75,6.94332 0.4125,-0.0312 3.45,-3.14432 6.75,-6.91812 5.79527,-6.62734 6.16208,-6.864254 10.75,-6.943332 2.6125,-0.04503 4.75,0.175012 4.75,0.488972 0,0.31397 -2.8125,3.72803 -6.25,7.5868 -3.4375,3.85877 -6.19331,7.61705 -6.12402,8.35173 0.0693,0.73467 2.8818,5.15315 6.25,9.81884 3.36821,4.66569 6.12402,8.75053 6.12402,9.07743 0,0.32689 -1.98911,0.59436 -4.42024,0.59436 -4.28412,0 -4.56719,-0.20016 -9.19286,-6.5 -2.62495,-3.575 -5.0661,-6.5 -5.42478,-6.5 -2.01432,0 -3.96212,4.09445 -3.96212,8.32874 l 0,4.67126 -4,0 -4,0 0,-18 z"
         id="path3505"
         inkscape:connector-curvature="0" />
      <path
         style="fill-opacity:1"
         d="m 205.15209,170.56316 c -1.76277,-1.24981 -11.88777,-11.2312 -22.5,-22.18087 l -19.29497,-19.90849 0,-4.67801 0,-4.67801 19.83522,-20.413495 c 10.90937,-11.227424 21.14687,-21.245189 22.75,-22.261699 l 2.91478,-1.848202 0,9.861599 0,9.861598 -14,13.973209 c -7.7,7.68526 -14,14.63281 -14,15.43899 0,0.80619 1.44657,2.95827 3.2146,4.78241 l 3.21459,3.31663 10.78541,-10.75196 10.7854,-10.75197 0,10.54586 c 0,10.48682 -0.0173,10.56229 -3.09138,13.48295 -1.70025,1.6154 -4.00875,4.2137 -5.12999,5.77401 l -2.03861,2.83693 5.16837,5.23338 5.16837,5.23338 -0.28838,9.70207 -0.28838,9.70206 -3.20503,-2.27237 z m 5.70503,-7.39273 0,-9.81675 5.14443,-5.20914 5.14443,-5.20914 -5.14443,-5.77192 -5.14443,-5.77193 0,-10.53333 0,-10.53333 10.7854,10.75197 10.78541,10.75196 3.21459,-3.31663 c 1.76803,-1.82414 3.2146,-3.97622 3.2146,-4.78241 0,-0.80618 -6.3,-7.75373 -14,-15.43899 l -14,-13.973209 0,-9.861598 0,-9.861599 2.81703,1.848202 c 5.19874,3.410792 42.0437,41.945134 42.73329,44.692654 0.36657,1.46055 0.36657,3.85054 0,5.3111 -0.68959,2.74751 -37.53455,41.28186 -42.73329,44.69265 l -2.81703,1.8482 0,-9.81676 z m 249.61863,-6.10756 c 0.782,-2.59838 1.24025,-5.19746 1.01834,-5.77574 -0.22191,-0.57828 0.68518,-2.38903 2.01575,-4.02388 2.26733,-2.78583 2.3617,-2.8155 1.50305,-0.47246 -0.50389,1.375 -0.94103,2.725 -0.97142,3 -0.0304,0.275 -0.27512,1.175 -0.54384,2 -0.26873,0.825 -1.00561,3.18123 -1.63751,5.23607 -0.6319,2.05484 -1.5218,3.96653 -1.97754,4.24819 -0.45575,0.28167 -0.18882,-1.61381 0.59317,-4.21218 z M 284.88892,158.425 c -0.0651,-1.77173 3.46722,-10.63421 4.23846,-10.63421 0.88805,0 4.74815,8.49012 4.69794,10.3329 -0.0175,0.6419 -0.6296,0.3796 -1.36025,-0.5829 -0.73064,-0.9625 -2.12922,-1.75 -3.10795,-1.75 -0.97873,0 -2.37731,0.7875 -3.10795,1.75 -0.73065,0.9625 -1.34275,1.36039 -1.36025,0.88421 z m 5.33203,-6.12847 c -0.31537,-0.82184 -0.97625,-1.24528 -1.46861,-0.94098 -1.41193,0.87261 -1.04399,2.43524 0.5734,2.43524 0.89208,0 1.24351,-0.5866 0.89521,-1.49426 z m 17.96871,3.87903 c -1.53464,-2.34215 -1.55989,-2.89036 -0.24186,-5.25 1.75515,-3.1422 6.85376,-4.11158 8.86694,-1.68584 1.55237,1.8705 0.73189,1.99862 -1.97464,0.30836 -2.50337,-1.56338 -5.33863,-0.0262 -5.80974,3.14988 -0.49404,3.33061 1.70567,5.36705 5.07046,4.69409 1.75264,-0.35053 2.62059,-0.19069 2.24699,0.41379 -1.28339,2.07658 -6.39917,1.05426 -8.15815,-1.63028 z m 25.00926,-2.88279 c 1.18701,-3.02391 2.51866,-5.49891 2.95923,-5.5 0.82971,-0.002 2.95945,4.63693 4.13096,8.99802 0.61205,2.27843 0.54642,2.3449 -0.74045,0.75 -1.72959,-2.14358 -5.54545,-2.29429 -6.32991,-0.25 -0.31659,0.825 -0.93615,1.5 -1.37682,1.5 -0.44066,0 0.16998,-2.47411 1.35699,-5.49802 z m 4.02203,-0.99624 c -0.31537,-0.82184 -0.97625,-1.24528 -1.46861,-0.94098 -1.41193,0.87261 -1.04399,2.43524 0.5734,2.43524 0.89208,0 1.24351,-0.5866 0.89521,-1.49426 z m 17.63617,0.99426 c 0,-5.41464 0.0454,-5.5 2.92857,-5.5 3.66816,0 6.07143,2.3241 6.07143,5.87143 0,3.61215 -1.68538,5.12857 -5.7,5.12857 l -3.3,0 0,-5.5 z m 6.42857,2.92857 c 2.0084,-2.0084 1.99271,-3.86444 -0.0499,-5.90709 -2.7745,-2.7745 -4.84393,-1.48278 -5.18612,3.23714 -0.26598,3.66801 -0.0391,4.24138 1.67852,4.24138 1.09234,0 2.69322,-0.70715 3.5575,-1.57143 z m 17.57143,-2.92857 c 0,-5.36635 0.0668,-5.49669 2.75,-5.36382 2.35784,0.11676 2.42915,0.19798 0.5,0.56955 -1.37202,0.26426 -2.25,1.15952 -2.25,2.29427 0,1.13474 0.87798,2.03 2.25,2.29426 l 2.25,0.43337 -2.25,0.13618 c -1.50928,0.0914 -2.25,0.77171 -2.25,2.06664 0,1.20687 0.84335,2.09288 2.25,2.36381 1.92915,0.37157 1.85784,0.45279 -0.5,0.56955 -2.68317,0.13288 -2.75,0.003 -2.75,-5.36381 z m 20,0 c 0,-6.8567 2.14081,-7.47571 4.32304,-1.25 l 1.4897,4.25 1.74532,-4.25 c 2.51365,-6.12094 4.44194,-5.5783 4.44194,1.25 0,3.025 -0.45,5.5 -1,5.5 -0.55,0 -1.03314,-1.9125 -1.07364,-4.25 l -0.0736,-4.25 -1.63302,4.25 c -0.89816,2.3375 -1.95252,4.25 -2.34303,4.25 -0.39051,0 -1.38699,-1.9125 -2.2144,-4.25 l -1.50439,-4.25 -0.0789,4.25 c -0.1176,6.32678 -2.07902,5.14745 -2.07902,-1.25 z m 29.10236,4.21016 c -0.0563,-0.98441 -1.01151,-3.57191 -2.12268,-5.75 -1.11118,-2.17809 -1.55004,-3.96016 -0.97525,-3.96016 0.57479,0 1.51999,1.2375 2.10045,2.75 l 1.05537,2.75 1.49813,-2.83841 c 0.82398,-1.56113 1.72438,-2.61217 2.0009,-2.33565 0.27652,0.27652 -0.0618,1.5538 -0.75191,2.83841 -0.69007,1.28461 -1.58046,3.68565 -1.97866,5.33565 -0.39819,1.65 -0.77005,2.19457 -0.82635,1.21016 z m 21.89764,-1.55518 c 0,-1.65709 0.89972,-3.64042 2.1548,-4.75 l 2.1548,-1.90498 -1.77097,2.75177 c -0.97403,1.51347 -1.53582,3.65097 -1.24842,4.75 0.2874,1.09902 0.11468,1.99823 -0.38383,1.99823 -0.49851,0 -0.90638,-1.28026 -0.90638,-2.84502 z m 5.59312,0.34325 c 0.90157,-1.37597 1.40391,-3.4016 1.11631,-4.50138 -0.2876,-1.09979 -0.11488,-1.74743 0.38383,-1.43922 1.45672,0.90031 1.04447,5.16178 -0.66469,6.87094 -2.32422,2.32422 -2.69638,1.90979 -0.83545,-0.93034 z m 28.60688,1.30177 c -0.66,-0.66 -1.2,-2.595 -1.2,-4.3 0,-3.7718 1.56426,-5.50502 4.95,-5.48469 2.95088,0.0177 5.81408,1.55394 4.79521,2.57281 -0.38328,0.38329 -1.36116,0.14558 -2.17306,-0.52824 -3.48415,-2.89159 -7.79929,1.77867 -5.54145,5.99748 0.95632,1.7869 1.71129,2.02602 4.65384,1.474 2.37232,-0.44505 3.29894,-0.31365 2.85488,0.40486 -0.894,1.44651 -6.85404,1.34916 -8.33942,-0.13622 z m 24.24295,-1.24673 c -1.37852,-2.10388 -1.41574,-2.83952 -0.26566,-5.25 2.50052,-5.24091 10.82271,-3.48747 10.82271,2.28029 0,5.38603 -7.57722,7.51751 -10.55705,2.96971 z m 7.35705,0.24673 c 1.67324,-1.67325 1.49769,-5.30805 -0.32961,-6.82458 -1.16961,-0.97069 -2.11105,-1.00455 -4,-0.14388 -4.0101,1.82712 -2.82263,8.16846 1.52961,8.16846 0.88,0 2.14,-0.54 2.8,-1.2 z m 17.2,-3.3 0,-5.5 3.3,0 c 4.12083,0 5.7,1.52376 5.7,5.5 0,3.97623 -1.57917,5.5 -5.7,5.5 l -3.3,0 0,-5.5 z m 6.8,3.3 c 1.83712,-1.83712 1.42786,-5.60769 -0.73426,-6.76482 -3.34914,-1.79241 -4.06574,-1.18173 -4.06574,3.46482 0,3.66666 0.33333,4.5 1.8,4.5 0.99,0 2.34,-0.54 3,-1.2 z m 17.2,-3.3 0,-5.5 3.25,0.0997 c 2.99331,0.0918 3.05296,0.1545 0.75525,0.79384 -3.61748,1.00657 -3.82208,3.85724 -0.31468,4.38449 l 2.80943,0.42232 -2.75,0.14984 c -2.00018,0.10897 -2.75,0.67704 -2.75,2.0834 0,1.3417 0.84179,2.0611 2.75,2.35017 2.55956,0.38774 2.52493,0.42697 -0.5,0.56643 l -3.25,0.14983 0,-5.5 z m -236.03811,-18.75 c -6.80944,-3.4338 -7.95846,-6.60935 -7.96034,-22 l -0.002,-12.750003 4,0 4,0 0,12.389213 c 0,10.34473 0.28879,12.73051 1.75,14.45736 2.85967,3.37955 6.52407,3.68186 9.85927,0.8134 2.8602,-2.45994 2.89446,-2.61915 3.24356,-15.07309 l 0.35282,-12.586883 3.89718,0 3.89717,0 0,9.363513 c 0,17.57254 -2.79393,24.37338 -10.94315,26.63724 -5.2119,1.44787 -7.13852,1.24864 -12.09496,-1.25075 z m 88.62904,0.76926 c -2.14999,-0.76613 -4.78334,-2.26723 -5.85189,-3.33578 -1.86262,-1.86262 -1.87095,-2.05253 -0.20173,-4.60009 0.95761,-1.46149 2.01596,-2.50517 2.3519,-2.31928 8.76446,4.84968 14.18551,5.58951 15.51774,2.11777 0.965,-2.51473 -0.97914,-4.07646 -7.97119,-6.40326 -7.53532,-2.5076 -10.43576,-5.55891 -10.43576,-10.97862 0,-7.9278 7.52696,-12.341752 17.25161,-10.116661 2.88661,0.660481 6.07076,1.819541 7.07589,2.575681 1.7291,1.30077 1.73637,1.51387 0.13499,3.95789 -1.92208,2.93345 -2.93009,3.10239 -6.46249,1.08309 -3.33304,-1.90534 -7.45029,-1.86729 -9.06957,0.0838 -2.07567,2.50103 0.0471,4.64735 6.94567,7.02288 7.47774,2.57495 9.88587,4.60755 10.71876,9.04725 0.96035,5.1191 -1.22277,9.27258 -6.01866,11.45079 -4.83453,2.19575 -8.66773,2.30936 -13.98527,0.41451 z m 97.06426,0.0221 c -7.5235,-2.6825 -11.65519,-8.87986 -11.65519,-17.48232 0,-9.58725 6.31873,-17.15321 15.54201,-18.609797 5.1145,-0.807707 11.61997,0.917207 15.19204,4.028137 l 2.76595,2.40887 -2.66342,2.69757 -2.66341,2.69756 -2.72144,-2.14069 c -4.95089,-3.89436 -13.79007,-2.08305 -16.25704,3.33138 -2.44089,5.35716 -0.54308,13.20075 3.74992,15.49829 3.30685,1.76978 9.54978,1.2152 12.50712,-1.11104 l 2.72144,-2.14069 2.66341,2.69596 2.66342,2.69595 -2.93018,2.19473 c -6.14846,4.60526 -12.18023,5.63723 -18.91463,3.23609 z m -223.65519,-17.54135 0,-18.000003 12.5,0 12.5,0 0,3.500003 0,3.5 -8.5,0 -8.5,0 0,4 0,4 8,0 8,0 0,3.5 0,3.5 -8,0 -8,0 0,7 0,7 -4,0 -4,0 0,-18 z m 66,0 0,-18.000003 4,0 4,0 0,14.500003 0,14.5 7.5,0 7.5,0 0,3.5 0,3.5 -11.5,0 -11.5,0 0,-18 z m 27,0 0,-18.000003 4,0 4,0 0,14.457933 0,14.45794 7.75,0.29206 7.75,0.29207 0.31336,3.25 0.31336,3.25 -12.06336,0 -12.06336,0 0,-18 z m 66,3.5 0,-14.5 -5,0 -5,0 0,-3.5 0,-3.500003 14,0 14,0 0,3.500003 0,3.5 -5,0 -5,0 0,14.5 0,14.5 -4,0 -4,0 0,-14.5 z m 18.62177,6.25 c 1.95024,-4.5375 5.40823,-12.65849 7.6844,-18.04664 l 4.1385,-9.796631 3.97861,0.296634 3.97861,0.296637 7.29905,16.9443 c 4.01449,9.31936 7.29906,17.30686 7.29906,17.75 0,0.44313 -1.75781,0.8057 -3.90625,0.8057 l -3.90625,0 -4.71803,-11.25 c -2.59491,-6.1875 -5.04496,-11.86159 -5.44454,-12.60908 -0.45824,-0.85721 -2.70979,3.29707 -6.0973,11.25 l -5.37078,12.60908 -4.24049,0 -4.2405,0 3.54591,-8.25 z m 11.87702,6.5 c 0.39202,-0.9625 1.41795,-3.76665 2.27984,-6.23143 0.8986,-2.56975 1.76654,-3.84949 2.03465,-3 0.25716,0.81479 1.29781,3.61893 2.31255,6.23143 l 1.84499,4.75 -4.5924,0 c -3.97857,0 -4.49713,-0.23391 -3.87963,-1.75 z m 58.50121,-16.25 0,-18.000003 4,0 4,0 0,7.000003 c 0,3.85 0.26454,7 0.58787,7 0.32333,0 3.58583,-3.18746 7.25,-7.08324 6.52774,-6.940349 6.75168,-7.076511 11.1016,-6.749998 l 4.43947,0.333238 -6.68167,7.5 c -3.67491,4.125 -6.68517,7.77925 -6.68947,8.12056 -0.004,0.34132 2.9172,4.75313 6.4922,9.80404 3.575,5.0509 6.5,9.38414 6.5,9.62943 0,0.24528 -1.96971,0.44597 -4.37713,0.44597 -4.27094,0 -4.50245,-0.17177 -9.54301,-7.08019 l -5.16587,-7.08018 -1.957,2.48791 c -1.29738,1.64936 -1.95699,4.03575 -1.95699,7.08019 l 0,4.59227 -4,0 -4,0 0,-18 z"
         id="path3503"
         inkscape:connector-curvature="0" />
      <path
         style="fill-opacity:1"
         d="m 186.1693,151.29079 c -14.36185,-14.24029 -22.42434,-22.96997 -22.8584,-24.75 -1.38217,-5.66806 0.26494,-7.84779 22.8584,-30.250003 l 22.18782,-22 0.28861,9.94881 0.28861,9.94881 -14.03861,14.063703 c -7.72124,7.73503 -14.03861,14.71165 -14.03861,15.50358 0,0.79194 1.44657,2.93236 3.2146,4.7565 l 3.21459,3.31663 10.78541,-10.75196 10.7854,-10.75197 0,10.51711 0,10.51711 -5.50258,5.43423 -5.50259,5.43423 5.541,5.59942 5.54099,5.59942 -0.28841,9.93219 -0.28841,9.93219 -22.18782,-22 z m 24.68782,11.2124 0,-9.28759 5,-4.92481 c 2.75,-2.70865 5,-5.40865 5,-6 0,-0.59135 -2.25,-3.29135 -5,-6 l -5,-4.92482 0,-10.52054 0,-10.52054 10.7854,10.75197 10.78541,10.75196 3.21459,-3.31663 c 1.76803,-1.82414 3.2146,-3.97622 3.2146,-4.78241 0,-0.80618 -6.3,-7.75373 -14,-15.43899 l -14,-13.973209 0,-9.263397 c 0,-6.862569 0.33193,-9.263397 1.28072,-9.263397 0.7044,0 10.78157,9.5625 22.39371,21.25 22.21377,22.357933 23.56917,24.285993 21.319,30.326273 -1.21151,3.25211 -41.74435,44.42373 -43.7345,44.42373 -0.92154,0 -1.25893,-2.48905 -1.25893,-9.2876 z M 460.1915,159.3618 c 0.30159,-0.78594 0.85988,-3.14844 1.24063,-5.25 0.6774,-3.73887 3.03053,-9.32101 3.92923,-9.32101 0.24909,0 0.0367,1.0125 -0.47206,2.25 -0.50871,1.2375 -1.63664,4.8375 -2.50649,8 -0.86986,3.1625 -1.84213,5.75 -2.16061,5.75 -0.31848,0 -0.3323,-0.64305 -0.0307,-1.42899 z m -175.30397,-1.23811 c -0.0591,-2.26945 3.96644,-10.45289 4.86789,-9.89576 1.12642,0.69617 4.2771,9.72079 3.62232,10.37557 -0.26045,0.26045 -0.75728,-0.26586 -1.10407,-1.16959 -0.83488,-2.17566 -5.04839,-2.10459 -6.33645,0.10688 -0.56061,0.9625 -1.03297,1.2248 -1.04969,0.5829 z m 5.95428,-4.5829 c -0.008,-0.6875 -0.3958,-1.85023 -0.86084,-2.58385 -0.67448,-1.06402 -0.97482,-0.9969 -1.48469,0.33179 -0.99283,2.58729 -0.76798,3.50206 0.86084,3.50206 0.825,0 1.49311,-0.5625 1.48469,-1.25 z m 18.01275,3.74692 c -0.68609,-0.8267 -1.24744,-2.62531 -1.24744,-3.99692 0,-1.37162 0.56135,-3.17023 1.24744,-3.99692 1.60735,-1.93674 6.39624,-1.93858 8.00256,-0.003 1.51374,1.82394 0.66496,1.93222 -2.01702,0.25729 -2.50337,-1.56338 -5.33863,-0.0262 -5.80974,3.14988 -0.49404,3.33061 1.70567,5.36704 5.07046,4.69409 1.75264,-0.35053 2.62059,-0.19069 2.24699,0.41379 -0.93992,1.52083 -6.097,1.16423 -7.49325,-0.51813 z m 23.03297,1.13729 c -0.0602,-1.71277 3.45574,-10.63421 4.19089,-10.63421 0.77961,0 3.04233,4.88238 4.21139,9.0871 0.61328,2.20577 0.54966,2.26268 -0.74115,0.6629 -0.77662,-0.9625 -2.35256,-1.75 -3.50209,-1.75 -1.14954,0 -2.54875,0.7875 -3.10935,1.75 -0.56061,0.9625 -1.03297,1.36039 -1.04969,0.88421 z m 5.57658,-5.216 c -0.33385,-0.86998 -0.61388,-2.10748 -0.6223,-2.75 -0.0204,-1.55842 -1.94951,1.46032 -1.96938,3.08179 -0.008,0.6875 0.70783,1.25 1.59168,1.25 1.05452,0 1.39831,-0.54381 1,-1.58179 z m 17.39301,0.0818 c 0,-5.41464 0.0454,-5.5 2.92857,-5.5 3.53553,0 6.07143,2.29722 6.07143,5.5 0,3.20277 -2.5359,5.5 -6.07143,5.5 -2.88312,0 -2.92857,-0.0854 -2.92857,-5.5 z m 6.96482,2.56574 c 0.56935,-1.06384 1.03518,-2.3817 1.03518,-2.92857 0,-1.66749 -3.02739,-4.13717 -5.07143,-4.13717 -1.61905,0 -1.92857,0.72222 -1.92857,4.5 0,4.1162 0.21022,4.5 2.46482,4.5 1.41343,0 2.90638,-0.82507 3.5,-1.93426 z m 17.03518,-2.56574 c 0,-5.36635 0.0668,-5.49669 2.75,-5.36382 2.35784,0.11676 2.42915,0.19798 0.5,0.56955 -1.37202,0.26426 -2.25,1.15952 -2.25,2.29427 0,1.13474 0.87798,2.03 2.25,2.29426 l 2.25,0.43337 -2.25,0.13618 c -1.50928,0.0914 -2.25,0.77171 -2.25,2.06664 0,1.20687 0.84335,2.09288 2.25,2.36381 1.92915,0.37157 1.85784,0.45279 -0.5,0.56955 -2.68317,0.13288 -2.75,0.003 -2.75,-5.36381 z m 20,0 c 0,-6.70739 2.03015,-7.4687 4,-1.5 0.72607,2.2 1.62686,4 2.00177,4 0.37491,0 1.22095,-1.8 1.88008,-4 1.83324,-6.11879 4.11815,-5.28653 4.11815,1.5 0,3.025 -0.45,5.5 -1,5.5 -0.55,0 -1.03314,-1.9125 -1.07364,-4.25 l -0.0736,-4.25 -1.63302,4.25 c -0.89816,2.3375 -1.95513,4.25 -2.34881,4.25 -0.39369,0 -1.25506,-1.6875 -1.91415,-3.75 -1.90084,-5.94829 -3.31106,-6.48953 -2.60551,-1 0.36671,2.85317 0.21881,4.75 -0.37037,4.75 -0.53951,0 -0.9809,-2.475 -0.9809,-5.5 z m 28.20441,1.77707 c -2.2174,-6.46446 -2.41006,-7.93488 -0.6349,-4.84565 l 1.68448,2.93143 1.45126,-2.76984 c 0.7982,-1.5234 1.67751,-2.54359 1.95403,-2.26707 0.27652,0.27652 -0.0618,1.5538 -0.75191,2.83841 -0.69007,1.28461 -1.51403,3.58533 -1.83102,5.11272 l -0.57635,2.77708 -1.29559,-3.77708 z m 23.46226,3.05626 c -1.38358,-1.38358 -0.58659,-5.09416 1.48813,-6.92835 l 2.1548,-1.90498 -1.77097,2.75177 c -0.97403,1.51347 -1.53582,3.65097 -1.24842,4.75 0.55777,2.1329 0.43658,2.39169 -0.62354,1.33156 z m 4.7947,-1.5851 c 0.97403,-1.51347 1.53566,-3.6516 1.24806,-4.75138 -0.2876,-1.09979 -0.11488,-1.74743 0.38383,-1.43922 1.65954,1.02566 0.93578,5.10672 -1.24806,7.03738 l -2.1548,1.90499 1.77097,-2.75177 z m 28.73863,1.05177 c -1.69902,-1.69903 -1.48823,-6.36892 0.37143,-8.22857 2.05236,-2.05236 5.82496,-2.00628 7.55613,0.0923 1.24658,1.51115 1.16264,1.55192 -0.91533,0.4446 -3.05351,-1.62717 -6.06692,-0.53547 -6.82157,2.47131 -0.91099,3.62967 1.29864,5.73247 5.33536,5.0774 1.95222,-0.3168 3.07938,-0.15119 2.73737,0.4022 -0.83428,1.3499 -6.84275,1.16141 -8.26339,-0.25923 z m 25,0 c -0.66,-0.66 -1.2,-2.595 -1.2,-4.3 0,-3.82613 1.56532,-5.5 5.1433,-5.5 2.8716,0 5.8567,3.09255 5.8567,6.06752 0,3.86777 -6.99902,6.53345 -9.8,3.73248 z m 7.23007,-2.00362 c 1.31522,-1.87774 1.34291,-2.50626 0.18722,-4.25 -2.59314,-3.91267 -7.61729,-2.67527 -7.61729,1.87606 0,4.62198 4.78471,6.15071 7.43007,2.37394 z m 16.56993,-2.29638 c 0,-5.23758 0.12242,-5.5 2.56574,-5.5 4.34292,0 6.43426,1.73411 6.43426,5.33518 0,4.13823 -1.53607,5.66482 -5.7,5.66482 l -3.3,0 0,-5.5 z m 6.8,3.3 c 1.83712,-1.83712 1.42786,-5.60769 -0.73426,-6.76482 -3.34914,-1.79241 -4.06574,-1.18173 -4.06574,3.46482 0,3.66666 0.33333,4.5 1.8,4.5 0.99,0 2.34,-0.54 3,-1.2 z m 17.2,-3.3 0,-5.5 3.25,0.14983 c 3.02493,0.13945 3.05956,0.17868 0.5,0.56642 -1.86937,0.28319 -2.75,1.01451 -2.75,2.28375 0,1.26923 0.88063,2.00056 2.75,2.28374 l 2.75,0.41659 -2.75,0.14983 c -2.00018,0.10898 -2.75,0.67705 -2.75,2.08341 0,1.3417 0.84179,2.0611 2.75,2.35017 2.55956,0.38774 2.52493,0.42697 -0.5,0.56642 l -3.25,0.14984 0,-5.5 z M 322.59764,135.39411 c -8.28193,-3.02721 -9.74052,-6.472 -9.74052,-23.00445 l 0,-12.598873 4,0 4,0 0,12.545453 c 0,11.98653 0.10935,12.65481 2.45455,15 3.09458,3.09459 5.67497,3.10673 9.23969,0.0435 2.75828,-2.37026 2.81137,-2.62407 3.13732,-15 l 0.33155,-12.588943 3.41845,0 3.41844,0 0,13.352113 c 0,12.25419 -0.18808,13.63152 -2.28733,16.75 -3.77788,5.61214 -11.33778,7.9262 -17.97215,5.50121 z m 87.42832,-0.0444 c -4.04224,-1.30277 -8.21167,-4.10301 -8.13557,-5.46395 0.0183,-0.32725 0.86247,-1.58842 1.87595,-2.80259 l 1.84267,-2.20759 4.91195,2.61923 c 5.22111,2.78408 9.58171,2.7044 10.69447,-0.19543 1.13003,-2.94479 -0.64783,-4.51016 -7.40947,-6.52387 -8.02311,-2.38938 -10.94884,-5.32472 -10.94884,-10.98476 0,-9.54303 11.26595,-13.655755 22.60072,-8.25058 3.91394,1.86643 3.94925,1.97812 1.59313,5.03984 -1.69603,2.20394 -1.89897,2.23189 -5.44565,0.75 -4.71907,-1.97176 -8.15732,-1.95615 -9.81777,0.0446 -2.08377,2.51079 0.0464,4.66792 6.99415,7.08271 7.50908,2.60989 9.8384,4.55311 10.6512,8.88569 1.71218,9.12671 -8.58195,15.4955 -19.40694,12.00673 z m 97.8677,0.26695 c -11.207,-3.21545 -16.28025,-15.49386 -10.95071,-26.5032 2.53881,-5.2445 6.14464,-7.95077 12.55926,-9.426091 5.84429,-1.344144 11.36518,-0.124501 15.85491,3.502571 l 3,2.42358 -2.35215,2.5118 -2.35214,2.5118 -3.14786,-1.91945 c -8.39288,-5.11767 -17.58131,-0.21734 -17.62561,9.40001 -0.0185,4.01789 0.46769,5.31685 2.90084,7.75 3.72171,3.72171 10.32629,4.08795 14.501,0.80413 l 2.6938,-2.11894 2.51258,2.36044 2.51258,2.36045 -3.01822,2.69677 c -2.86933,2.56375 -8.88376,4.90728 -12.12482,4.72446 -0.825,-0.0465 -3.05856,-0.53179 -4.96346,-1.07833 z m -225.03654,-17.82591 0,-18.000003 12.5,0 12.5,0 0,3.500003 0,3.5 -8.5,0 -8.5,0 0,4 0,4 8,0 8,0 0,3.5 0,3.5 -8,0 -8,0 0,7 0,7 -4,0 -4,0 0,-18 z m 66,0 0,-18.000003 4,0 4,0 0,14.500003 0,14.5 7.5,0 7.5,0 0,3.5 0,3.5 -11.5,0 -11.5,0 0,-18 z m 27,0 0,-18.000003 4,0 4,0 0,14.457933 0,14.45794 7.75,0.29206 7.75,0.29207 0.31336,3.25 0.31336,3.25 -12.06336,0 -12.06336,0 0,-18 z m 66,3.5 0,-14.5 -5,0 -5,0 0,-3.5 0,-3.500003 14,0 14,0 0,3.500003 0,3.5 -5,0 -5,0 0,14.5 0,14.5 -4,0 -4,0 0,-14.5 z m 22.84797,-3.51904 7.65203,-18.01903 3.89388,0.26903 3.89389,0.26904 6.85213,15.94976 c 9.12717,21.2454 8.77383,19.55024 4.07506,19.55024 l -3.91981,0 -5.31075,-12.53683 c -2.92091,-6.89525 -5.6243,-12.18275 -6.00753,-11.75 -0.38322,0.43276 -2.87305,6.07433 -5.53295,12.53683 l -4.83618,11.75 -4.2059,0 -4.20591,0 7.65204,-18.01904 z m 8.66113,13.99326 c 2.64363,-7.49287 2.98033,-7.59301 5.20697,-1.54851 l 2.05341,5.57429 -4.34038,0 -4.34038,0 1.42038,-4.02578 z m 57.4909,-13.97422 0,-18.000003 4,0 4,0 0,7.732423 0,7.73243 7.25,-7.82097 c 7.13518,-7.697112 7.31878,-7.815613 11.59292,-7.482429 l 4.34292,0.338549 -6.59292,7.48127 c -3.62611,4.1147 -6.59292,7.82211 -6.59292,8.23868 0,0.41657 2.62219,4.475 5.82708,9.01873 8.1715,11.58511 7.9476,10.76132 2.92481,10.76132 -4.24188,0 -4.505,-0.19214 -9.24407,-6.75 -2.68286,-3.7125 -5.05042,-6.96828 -5.26126,-7.23506 -0.21084,-0.26679 -1.24256,0.63321 -2.29272,2 -1.25139,1.62869 -1.91703,4.12193 -1.9316,7.23506 l -0.0222,4.75 -4,0 -4,0 0,-18 z"
         id="path3501"
         inkscape:connector-curvature="0" />
      <path
         style="fill-opacity:1"
         d="m 185.64606,151.04079 c -11.38126,-11.4125 -21.18332,-22.06568 -21.78237,-23.67373 -2.25017,-6.04028 -0.89477,-7.96834 21.319,-30.326273 11.61214,-11.6875 21.68931,-21.25 22.39371,-21.25 0.94879,0 1.28072,2.400828 1.28072,9.263397 l 0,9.263397 -14,13.973209 c -7.7,7.68526 -14,14.63281 -14,15.43899 0,0.80619 1.44657,2.95827 3.2146,4.78241 l 3.21459,3.31663 10.78541,-10.75196 10.7854,-10.75197 0,10.51711 0,10.51711 -5.50258,5.43423 -5.50259,5.43423 5.50259,5.56061 5.50258,5.5606 0,9.221 c 0,6.74502 -0.33804,9.22101 -1.25893,9.22101 -0.69241,0 -10.57087,-9.3375 -21.95213,-20.75 z m 25.21106,11.52899 0,-9.221 5.50258,-5.5606 5.50259,-5.56061 -5.50259,-5.43423 -5.50258,-5.43423 0,-10.51711 0,-10.51711 10.7854,10.75197 10.78541,10.75196 3.21459,-3.31663 c 1.76803,-1.82414 3.2146,-3.97622 3.2146,-4.78241 0,-0.80618 -6.3,-7.75373 -14,-15.43899 l -14,-13.973209 0,-9.263397 c 0,-6.862569 0.33193,-9.263397 1.28072,-9.263397 0.7044,0 10.78157,9.5625 22.39371,21.25 22.21377,22.357933 23.56917,24.285993 21.319,30.326273 -1.21151,3.25211 -41.74435,44.42373 -43.7345,44.42373 -0.92089,0 -1.25893,-2.47599 -1.25893,-9.22101 z m 74.57134,-5.69189 c 0.97281,-3.52002 3.37964,-9.0871 3.92866,-9.0871 0.54902,0 2.95585,5.56708 3.92866,9.0871 0.56089,2.02952 0.49247,2.13484 -0.4306,0.6629 -0.60359,-0.9625 -2.17772,-1.75 -3.49806,-1.75 -1.32034,0 -2.89447,0.7875 -3.49806,1.75 -0.92307,1.47194 -0.99149,1.36662 -0.4306,-0.6629 z m 5.41335,-3.3371 c -0.008,-0.6875 -0.3958,-1.85023 -0.86084,-2.58385 -0.67448,-1.06402 -0.97482,-0.9969 -1.48469,0.33179 -0.99283,2.58729 -0.76798,3.50206 0.86084,3.50206 0.825,0 1.49311,-0.5625 1.48469,-1.25 z m 18.21531,4.05 c -0.66,-0.66 -1.2,-2.595 -1.2,-4.3 0,-1.705 0.54,-3.64 1.2,-4.3 1.47392,-1.47392 6.44559,-1.58246 7.32477,-0.15992 0.4172,0.67504 -0.2686,0.81133 -1.95397,0.38833 -3.16094,-0.79335 -5.5708,0.96797 -5.5708,4.07159 0,3.10362 2.40986,4.86493 5.5708,4.07158 1.68537,-0.423 2.37117,-0.2867 1.95397,0.38833 -0.87918,1.42255 -5.85085,1.314 -7.32477,-0.15991 z m 22.83041,0.5329 c -0.0543,-2.08567 3.99968,-10.63615 4.70736,-9.92847 1.07539,1.07539 4.26687,9.92426 3.76157,10.42956 -0.24874,0.24874 -0.736,-0.28714 -1.08279,-1.19086 -0.83488,-2.17567 -5.04839,-2.1046 -6.33645,0.10687 -0.56061,0.9625 -1.03297,1.2248 -1.04969,0.5829 z m 5.96959,-4.25112 c 0,-1.95285 -1.25164,-4.04429 -2.10478,-3.51702 -1.48484,0.91767 -1.00518,4.43524 0.60478,4.43524 0.825,0 1.5,-0.4132 1.5,-0.91822 z m 17,-0.58178 c 0,-5.37787 0.0632,-5.5 2.84501,-5.5 5.17162,0 8.06347,5.94866 4.58356,9.42857 -0.86428,0.86428 -2.88928,1.57143 -4.5,1.57143 -2.88312,0 -2.92857,-0.0854 -2.92857,-5.5 z m 6.8,3.3 c 2.67306,-2.67306 0.12837,-7.8 -3.87143,-7.8 -1.61905,0 -1.92857,0.72222 -1.92857,4.5 0,4.02898 0.24074,4.5 2.3,4.5 1.265,0 2.84,-0.54 3.5,-1.2 z m 17.2,-3.3 c 0,-5.36635 0.0668,-5.49669 2.75,-5.36382 2.35784,0.11676 2.42915,0.19798 0.5,0.56955 -1.37202,0.26426 -2.25,1.15952 -2.25,2.29427 0,1.13474 0.87798,2.03 2.25,2.29426 l 2.25,0.43337 -2.25,0.13618 c -1.50928,0.0914 -2.25,0.77171 -2.25,2.06664 0,1.20687 0.84335,2.09288 2.25,2.36381 1.92915,0.37157 1.85784,0.45279 -0.5,0.56955 -2.68317,0.13288 -2.75,0.003 -2.75,-5.36381 z m 20.1571,0.25 c -0.18979,-6.94663 1.87689,-7.91762 3.72475,-1.75 0.65914,2.2 1.55834,4 1.99823,4 0.43989,0 1.39385,-1.8 2.11992,-4 0.72607,-2.2 1.69809,-4 2.16006,-4 1.12958,0 1.12488,0.0182 -1.16006,4.5 -1.1,2.15758 -2,4.50273 -2,5.21144 0,0.70871 -0.45,1.28856 -1,1.28856 -0.55,0 -1,-0.39505 -1,-0.87788 0,-0.48283 -0.77585,-2.62033 -1.72412,-4.75 l -1.72412,-3.87212 -0.61878,5 -0.61877,5 -0.15711,-5.75 z m 9.92185,3.66666 c 0.048,-1.16494 0.28494,-1.4019 0.60416,-0.60416 0.28887,0.72187 0.25335,1.58437 -0.0789,1.91666 -0.3323,0.33229 -0.56864,-0.25833 -0.52522,-1.3125 z m 19.02341,-0.21632 c -0.0563,-1.26482 -0.81054,-3.66914 -1.6761,-5.34293 -0.86555,-1.6738 -1.31555,-3.30146 -1,-3.61701 0.31556,-0.31556 0.57374,-0.13475 0.57374,0.4018 0,0.53655 0.64138,1.84905 1.4253,2.91667 1.37265,1.86943 1.46602,1.83443 2.52797,-0.94756 0.60648,-1.58878 1.35156,-2.63982 1.65573,-2.33565 0.30417,0.30418 -0.0116,1.60409 -0.70163,2.88869 -0.69007,1.28461 -1.58046,3.68565 -1.97866,5.33565 -0.59165,2.45164 -0.7427,2.57965 -0.82635,0.70034 z m 55.93282,-0.1346 c -1.4851,-2.77494 -1.27716,-5.6809 0.53625,-7.49431 1.77907,-1.77907 5.98364,-2.10037 6.95334,-0.53135 0.4172,0.67504 -0.2686,0.81133 -1.95397,0.38833 -3.16094,-0.79335 -5.5708,0.96797 -5.5708,4.07159 0,3.26432 2.42001,4.86124 6.25248,4.1259 2.30965,-0.44316 2.81433,-0.33914 1.74752,0.36018 -2.55088,1.67217 -6.84276,1.17624 -7.96482,-0.92034 z m 25.16482,0.73426 c -0.66,-0.66 -1.2,-2.66917 -1.2,-4.46482 0,-5.73907 7.05139,-7.30522 9.90709,-2.20041 1.32074,2.36091 1.29583,2.90659 -0.23963,5.25 -1.85796,2.83561 -6.30398,3.5787 -8.46746,1.41523 z m 7.9801,-2.29594 c 0.93966,-2.06233 0.82215,-2.84409 -0.67642,-4.5 -3.10676,-3.43293 -7.50368,-1.97038 -7.50368,2.49594 0,4.80483 6.21071,6.32641 8.1801,2.00406 z m 15.8199,-2.00406 c 0,-5.23758 0.12242,-5.5 2.56574,-5.5 4.34292,0 6.43426,1.73411 6.43426,5.33518 0,4.13823 -1.53607,5.66482 -5.7,5.66482 l -3.3,0 0,-5.5 z m 6.8,3.3 c 2.88111,-2.88111 0.67391,-7.8 -3.5,-7.8 -2.05926,0 -2.3,0.47101 -2.3,4.5 0,4.02898 0.24074,4.5 2.3,4.5 1.265,0 2.84,-0.54 3.5,-1.2 z m 17.2,-3.3 c 0,-5.36635 0.0668,-5.49669 2.75,-5.36382 2.35784,0.11676 2.42915,0.19798 0.5,0.56955 -1.37202,0.26426 -2.25,1.15952 -2.25,2.29427 0,1.13474 0.87798,2.03 2.25,2.29426 l 2.25,0.43337 -2.25,0.13618 c -1.50928,0.0914 -2.25,0.77171 -2.25,2.06664 0,1.20687 0.84335,2.09288 2.25,2.36381 1.92915,0.37157 1.85784,0.45279 -0.5,0.56955 -2.68317,0.13288 -2.75,0.003 -2.75,-5.36381 z m -106.91405,2.37244 c -0.0473,-1.44515 0.67543,-3.24515 1.60601,-4 1.33752,-1.08494 1.5245,-1.09418 0.89256,-0.0441 -0.43966,0.73059 -1.16237,2.53059 -1.606,4 l -0.80661,2.67166 -0.086,-2.62756 z m 5.84023,0.27532 c 0.68949,-1.29372 1.03013,-3.20684 0.75698,-4.25138 -0.27316,-1.04453 -0.0886,-1.64696 0.4101,-1.33875 1.50203,0.92831 1.02101,5.10322 -0.75698,6.56992 -1.51531,1.25002 -1.55189,1.16262 -0.4101,-0.97979 z m 5.54908,-0.14776 c 0.27359,-1.375 0.50358,-3.2015 0.51109,-4.05887 0.008,-0.85738 0.66763,-2.43238 1.46693,-3.5 1.26397,-1.68826 1.26216,-1.28977 -0.0138,3.05887 -1.72412,5.87589 -2.66842,8.03929 -1.96419,4.5 z M 324.85712,135.78638 c -9.39499,-1.6343 -12,-6.84775 -12,-24.01583 l 0,-11.979763 3.39717,0 3.39718,0 0.35282,12.586883 c 0.34651,12.36134 0.40311,12.63013 3.15859,15 4.59316,3.95037 9.49583,2.69537 11.65493,-2.98348 0.57162,-1.50348 1.03931,-7.65431 1.03931,-13.6685 l 0,-10.934903 3.5,0 3.5,0 -0.004,13.250003 c -0.003,11.35562 -0.28149,13.70553 -1.94649,16.43617 -3.06908,5.03383 -9.30039,7.48345 -16.04951,6.30942 z m 87.5,0.0912 c -3.73737,-0.93708 -9.1533,-3.71679 -10.04136,-5.1537 -0.3675,-0.59463 0.34322,-2.15772 1.57937,-3.47354 l 2.24754,-2.3924 2.77307,1.9746 c 5.78107,4.11649 13.41576,3.30261 12.75206,-1.3594 -0.24061,-1.69016 -1.72347,-2.66596 -6.575,-4.32672 -8.34716,-2.85736 -10.93068,-4.69049 -11.72824,-8.32174 -1.79148,-8.15657 3.03976,-13.370648 12.38099,-13.362053 5.09097,0.0047 11.16872,1.993583 12.45576,4.076053 0.25905,0.41917 -0.34336,1.76781 -1.33869,2.997 -1.72058,2.12482 -1.98529,2.16151 -5.37548,0.745 -4.51191,-1.8852 -8.04545,-1.89917 -9.59015,-0.0379 -2.42419,2.92096 -0.70067,4.76153 6.96013,7.43282 6.63375,2.31316 7.71141,3.04786 9.33037,6.36105 1.22011,2.49696 1.61236,4.73843 1.17648,6.72297 -0.71295,3.24606 -5.66138,8.02304 -8.33358,8.04485 -0.9203,0.007 -2.57327,0.19628 -3.67327,0.41949 -1.1,0.22321 -3.35,0.0674 -5,-0.34636 z m 96.14596,-0.1958 c -8.84455,-2.07219 -14.22945,-9.84134 -13.4378,-19.38758 0.7204,-8.68702 6.51931,-15.06568 15.40384,-16.943831 4.11883,-0.870702 11.33262,1.022261 14.96622,3.927271 l 2.92178,2.33592 -2.39278,2.55505 -2.39277,2.55504 -2.7616,-1.96642 c -1.79851,-1.28066 -4.39109,-1.96643 -7.43414,-1.96643 -3.83107,0 -5.19898,0.52642 -7.59563,2.92307 -2.44215,2.44215 -2.92308,3.7362 -2.92308,7.86514 0,5.95405 2.4129,9.53289 7.57604,11.23688 3.12805,1.03235 4.12301,0.88372 8.46344,-1.26434 l 4.91866,-2.43422 2.02654,2.15715 2.02653,2.15715 -2.2556,2.05462 c -4.61813,4.20662 -10.69849,5.69761 -17.10965,4.19554 z m -224.64596,-17.89098 0,-18.000003 12,0 12,0 0,3.500003 0,3.5 -8.5,0 -8.5,0 0,4 0,4 8,0 8,0 0,3.5 0,3.5 -8,0 -8,0 0,7 0,7 -3.5,0 -3.5,0 0,-18 z m 65,0 0,-18.000003 3.47327,0 3.47326,0 0.27674,14.750003 0.27673,14.75 7.75,0.29206 7.75,0.29207 0,2.95793 0,2.95794 -11.5,0 -11.5,0 0,-18 z m 28,0 0,-18.000003 3.47327,0 3.47326,0 0.27674,14.750003 0.27673,14.75 7.25,0.29381 7.25,0.29381 0,2.95619 0,2.95619 -11,0 -11,0 0,-18 z m 66,3.5 0,-14.5 -5.5,0 -5.5,0 0,-3.5 0,-3.500003 14,0 14,0 0,3.500003 0,3.5 -5,0 -5,0 0,14.5 0,14.5 -3.5,0 -3.5,0 0,-14.5 z m 15,13.6943 c 0,-0.44314 3.28723,-8.43064 7.30496,-17.75 l 7.30497,-16.9443 3.83285,0 3.83286,0 6.85819,15.94976 c 9.12323,21.21744 8.76889,19.55024 4.15513,19.55024 l -3.84581,0 -5.35337,-12.56821 c -2.94436,-6.91251 -5.67518,-12.20001 -6.0685,-11.75 -0.39332,0.45002 -2.92151,6.09841 -5.6182,12.55198 l -4.90308,11.73378 -3.75,0.0162 c -2.0625,0.009 -3.75,-0.34634 -3.75,-0.78947 z m 16.01459,-4.23132 c 1.09198,-2.77036 2.01055,-5.35786 2.04128,-5.75 0.0843,-1.07563 3.82388,8.09673 3.88826,9.53702 0.0358,0.80025 -1.37808,1.25 -3.92954,1.25 l -3.98541,0 1.98541,-5.03702 z m 57.98541,-12.96298 0,-18.000003 3.5,0 3.5,0 0.0288,7.750003 0.0288,7.75 7.22121,-7.829 c 7.07744,-7.673121 7.30636,-7.822448 11.49728,-7.500001 l 4.27603,0.329001 -6.52606,7.40497 c -3.58933,4.07274 -6.52606,7.81625 -6.52606,8.31892 0,0.50267 2.6099,4.59543 5.79978,9.09502 3.18989,4.4996 6.14144,8.74359 6.55902,9.43109 0.56168,0.92474 -0.37204,1.25 -3.5884,1.25 -4.24213,0 -4.46802,-0.16958 -9.30902,-6.98842 -2.72876,-3.84362 -5.27336,-6.99362 -5.65468,-7 -1.78464,-0.0298 -3.8067,4.86287 -3.8067,9.21092 l 0,4.7775 -3.5,0 -3.5,0 0,-18 z"
         id="path3499"
         inkscape:connector-curvature="0" />
      <path
         style="fill-opacity:1"
         d="m 185.24496,150.54079 c -14.67564,-14.76258 -21.2753,-22.08955 -21.61767,-24 -1.11426,-6.21767 0.0447,-7.79925 21.61767,-29.500003 11.61867,-11.6875 21.6845,-21.25 22.36851,-21.25 0.90114,0 1.24365,2.526139 1.24365,9.172507 l 0,9.172507 -14,14.120359 c -7.7,7.76619 -14,14.75464 -14,15.52988 0,0.77524 1.44657,2.90201 3.2146,4.72615 l 3.21459,3.31663 10.78541,-10.75196 10.7854,-10.75197 0,10.51711 0,10.51711 -5.47237,5.40439 -5.47237,5.40439 5.47237,5.73721 5.47237,5.73721 0,9.07424 c 0,6.56802 -0.34348,9.07424 -1.24365,9.07424 -0.68401,0 -10.74984,-9.5625 -22.36851,-21.25 z m 25.61216,12.02899 0,-9.221 5.50258,-5.5606 5.50259,-5.56061 -5.50259,-5.43423 -5.50258,-5.43423 0.0335,-10.53416 0.0335,-10.53416 10.56585,10.84983 10.56585,10.84984 3.40061,-3.296 c 1.87033,-1.81281 3.40061,-4.00126 3.40061,-4.86324 0,-0.86197 -6.3,-7.85517 -14,-15.54043 l -14,-13.973209 0,-9.263397 c 0,-6.718832 0.34162,-9.263397 1.24365,-9.263397 0.68401,0 10.74984,9.5625 22.36851,21.25 21.57295,21.700753 22.73193,23.282333 21.61767,29.500003 -0.34237,1.91045 -6.94203,9.23742 -21.61767,24 -11.61867,11.6875 -21.6845,21.25 -22.36851,21.25 -0.90162,0 -1.24365,-2.53597 -1.24365,-9.22101 z m 74.03041,-3.91418 c -0.0167,-0.34936 0.62698,-2.14936 1.43045,-4 0.81935,-1.88723 1.47804,-2.59634 1.5,-1.61481 0.0391,1.7483 3.03914,2.56938 3.03914,0.83178 0,-1.95285 -1.25164,-4.04429 -2.10478,-3.51702 -0.49237,0.3043 -0.89522,0.10327 -0.89522,-0.44673 0,-2.81501 1.99272,-1.59879 3.50374,2.13845 2.43126,6.01331 2.86664,7.5847 1.52208,5.49352 -0.61886,-0.9625 -2.20548,-1.75 -3.52582,-1.75 -1.32034,0 -2.8593,0.7875 -3.4199,1.75 -0.56061,0.9625 -1.03297,1.46416 -1.04969,1.11481 z m 25.96959,-0.25131 c 0,-0.21258 1.32623,-0.58115 2.94719,-0.81906 1.62095,-0.23791 2.71939,-0.064 2.44098,0.3865 -0.49551,0.80176 -5.38817,1.19454 -5.38817,0.43256 z m 44,-5.1135 c 0,-5.36635 0.0668,-5.49669 2.75,-5.36382 2.35784,0.11676 2.42915,0.19798 0.5,0.56955 -1.92956,0.37165 -2.25,1.06435 -2.25,4.86382 0,3.95641 0.24609,4.43045 2.3,4.43045 4.24744,0 6.31312,-4.79103 3.45,-8.00178 -1.06341,-1.19252 -0.98877,-1.2041 0.5,-0.0776 3.87303,2.93071 0.77226,9.07934 -4.57874,9.07934 -2.57122,0 -2.67126,-0.20597 -2.67126,-5.5 z m 24,0 c 0,-5.36635 0.0668,-5.49669 2.75,-5.36382 2.35784,0.11676 2.42915,0.19798 0.5,0.56955 -1.37202,0.26426 -2.25,1.15952 -2.25,2.29427 0,1.13474 0.87798,2.03 2.25,2.29426 l 2.25,0.43337 -2.25,0.13618 c -1.50928,0.0914 -2.25,0.77171 -2.25,2.06664 0,1.20687 0.84335,2.09288 2.25,2.36381 1.92915,0.37157 1.85784,0.45279 -0.5,0.56955 -2.68317,0.13288 -2.75,0.003 -2.75,-5.36381 z m 25.06361,5 c 0,-0.55 0.66069,-1.87351 1.46819,-2.94113 0.80751,-1.06762 1.4682,-1.49113 1.4682,-0.94113 0,0.55 -0.66069,1.87351 -1.4682,2.94113 -0.8075,1.06762 -1.46819,1.49113 -1.46819,0.94113 z m 23.90095,-1.58334 c -0.0195,-1.32916 -0.67854,-3.54166 -1.46456,-4.91666 -0.78602,-1.375 -1.42706,-2.95 -1.42453,-3.5 0.003,-0.55 0.68296,0.25085 1.51205,1.77967 0.8291,1.52882 1.9293,2.51895 2.44491,2.20029 0.55626,-0.34379 0.68185,0.76237 0.30887,2.72033 -0.79289,4.16226 -1.33103,4.83316 -1.37674,1.71637 z m 56.69043,0.2546 c -2.1712,-2.39915 -2.10048,-5.45812 0.17375,-7.51628 1.9479,-1.76282 5.70458,-2.21911 6.58198,-0.79944 0.29082,0.47055 -0.58521,0.64259 -1.94673,0.38232 -3.06866,-0.58661 -5.46399,1.28185 -5.46399,4.26214 0,2.98028 2.39533,4.84874 5.46399,4.26213 1.36152,-0.26027 2.23755,-0.0882 1.94673,0.38232 -0.93197,1.50797 -5.04674,0.91522 -6.75573,-0.97319 z m 24.91644,0.25731 c -3.34591,-3.34591 -0.84473,-9.55723 3.75,-9.31257 2.02845,0.10801 2.04076,0.14987 0.17857,0.60761 -4.31455,1.06053 -6.05537,5.32101 -3.3,8.07639 3.67781,3.6778 9.00414,-0.71257 6.88663,-5.6765 -1.0461,-2.4523 -1.02018,-2.49683 0.39712,-0.68237 1.91089,2.44636 1.90378,3.56058 -0.0404,6.33636 -1.81559,2.59211 -5.61647,2.90648 -7.87187,0.65108 z m 25.6976,0.87844 c 0.97297,-0.25355 2.32297,-0.23687 3,0.037 0.67703,0.27392 -0.11903,0.48136 -1.76903,0.46098 -1.65,-0.0204 -2.20394,-0.24449 -1.23097,-0.49804 z m 21.73097,-4.80701 c 0,-5.36635 0.0668,-5.49669 2.75,-5.36382 2.35784,0.11676 2.42915,0.19798 0.5,0.56955 -1.37202,0.26426 -2.25,1.15952 -2.25,2.29427 0,1.13474 0.87798,2.03 2.25,2.29426 l 2.25,0.43337 -2.25,0.13618 c -1.50928,0.0914 -2.25,0.77171 -2.25,2.06664 0,1.20687 0.84335,2.09288 2.25,2.36381 1.92915,0.37157 1.85784,0.45279 -0.5,0.56955 -2.68317,0.13288 -2.75,0.003 -2.75,-5.36381 z m -248.33333,3.83333 c -1.24769,-1.24768 -0.67218,-6.18497 0.90476,-7.7619 1.66086,-1.66087 5.96188,-2.13558 6.81674,-0.75238 0.27841,0.45048 -0.73313,0.63716 -2.24786,0.41485 -3.5208,-0.51675 -5.50837,1.805 -4.92835,5.75694 0.47709,3.25059 0.45551,3.34329 -0.54529,2.34249 z m 141.49122,-1.33333 c 0,-1.375 0.22698,-1.9375 0.50439,-1.25 0.27741,0.6875 0.27741,1.8125 0,2.5 -0.27741,0.6875 -0.50439,0.125 -0.50439,-1.25 z m -113.90789,0.19518 c -3.48795,-0.34547 -3.82661,-0.85104 -2.14035,-3.19518 0.91077,-1.26612 0.99124,-1.22714 0.51607,0.25 -0.40683,1.26467 -0.017,1.75 1.40566,1.75 2.06005,0 2.37292,-0.78285 1.36384,-3.41247 -0.33264,-0.86683 -1.00764,-1.32707 -1.5,-1.02277 -0.49237,0.3043 -0.89522,0.10327 -0.89522,-0.44673 0,-2.78217 1.98173,-1.62096 3.43586,2.01327 0.90631,2.26509 1.5165,4.17851 1.35599,4.25206 -0.16052,0.0736 -1.75435,-0.0111 -3.54185,-0.18818 z m 120.63116,-2.41377 c 0.46036,-2.77692 0.60121,-2.91776 0.91609,-0.91608 0.20464,1.30094 -0.0402,2.77757 -0.544,3.28142 -0.55478,0.55478 -0.70153,-0.37812 -0.37209,-2.36534 z m 84.25502,0.091 c -0.1574,-3.03706 -1.61156,-4.49243 -5.13618,-5.14044 l -2.5,-0.45964 2.59501,-0.13618 c 3.29328,-0.17283 6.20757,2.95393 5.62153,6.03135 -0.41763,2.19309 -0.45231,2.17546 -0.58036,-0.29509 z m -79.05723,-0.45577 c 0.048,-1.16495 0.28494,-1.4019 0.60416,-0.60417 0.28887,0.72187 0.25335,1.58437 -0.0789,1.91667 -0.33229,0.33229 -0.56864,-0.25834 -0.52522,-1.3125 z m -54.07895,-4.41667 c 0,-0.55 0.47656,-1 1.05902,-1 0.58246,0 0.7809,0.45 0.44098,1 -0.33992,0.55 -0.81648,1 -1.05902,1 -0.24254,0 -0.44098,-0.45 -0.44098,-1 z m -124,-31 0,-18.000003 12,0 12,0 0,3.500003 0,3.5 -8.5,0 -8.5,0 0,4 0,4 8,0 8,0 0,3.5 0,3.5 -8,0 -8,0 0,7 0,7 -3.5,0 -3.5,0 0,-18 z m 37.5,17.04597 c -2.73713,-1.13215 -6.14809,-4.9688 -7.43339,-8.36107 -0.58663,-1.54831 -1.06661,-8.18581 -1.06661,-14.75 l 0,-11.934903 3.5,0 3.5,0 0.0147,11.250003 c 0.009,6.98587 0.48843,12.18612 1.26446,13.71977 1.72432,3.40769 5.74924,5.49089 9.02191,4.6695 4.44789,-1.11634 5.69893,-5.08742 5.69893,-18.08961 l 0,-11.549663 3.5,0 3.5,0 0,12.598873 c 0,14.26418 -1.21698,18.34267 -6.41996,21.51545 -3.23687,1.97383 -11.3488,2.47499 -15.08004,0.93165 z m 27.5,-17.04597 0,-18.000003 3.47327,0 3.47326,0 0.27674,14.750003 0.27673,14.75 7.75,0.29206 7.75,0.29207 0,2.95793 0,2.95794 -11.5,0 -11.5,0 0,-18 z m 28,0 0,-18.000003 3.5,0 3.5,0 0,15.000003 0,15 7.5,0 7.5,0 0,3 0,3 -11,0 -11,0 0,-18 z m 29.8148,15.96515 c -4.85759,-2.56568 -5.16096,-3.25537 -2.76931,-6.29586 l 2.01824,-2.56577 3.60768,2.44824 c 5.73837,3.89416 12.32859,2.94911 12.32859,-1.76794 0,-1.85641 -2.25795,-3.11585 -11.2713,-6.28689 -6.8261,-2.40153 -9.35588,-7.83155 -6.53401,-14.02487 1.62854,-3.57427 5.71672,-5.472063 11.78777,-5.472063 5.69575,0 12.0341,2.220513 11.98574,4.198973 -0.0175,0.71556 -0.65299,2.12051 -1.41222,3.1221 -1.28268,1.69215 -1.5955,1.70985 -4.41853,0.25 -5.78302,-2.99051 -11.56776,-1.65065 -10.97494,2.54202 0.27178,1.92218 1.50568,2.78924 6.33749,4.45338 8.84318,3.04569 10.30944,4.08385 11.41305,8.08079 1.20365,4.35927 -0.47048,9.22892 -4.02992,11.72204 -3.32616,2.32973 -13.31533,2.1063 -18.06833,-0.40415 z m 36.1852,-12.46515 0,-14.5 -5.5,0 -5.5,0 0,-3.5 0,-3.500003 14,0 14,0 0,3.500003 0,3.5 -5,0 -5,0 0,14.5 0,14.5 -3.5,0 -3.5,0 0,-14.5 z m 15.41577,12.76539 c 0.32571,-1.02622 3.67839,-9.04325 7.4504,-17.81563 l 6.85819,-15.94976 3.7227,0 3.7227,0 7.41512,17.49871 c 4.07832,9.6243 7.41512,17.6118 7.41512,17.75 0,0.13821 -1.6875,0.24497 -3.75,0.23725 l -3.75,-0.014 -5.16263,-12.23596 c -2.83945,-6.72978 -5.52141,-12.16405 -5.95992,-12.07616 -0.4385,0.0879 -3.08386,5.48789 -5.87856,12 l -5.08128,11.8402 -3.79702,0.31562 c -3.31769,0.27578 -3.72226,0.0801 -3.20482,-1.55023 z m 15.86733,-3.83742 2.05259,-5.57203 1.83134,4.82203 c 1.00724,2.65211 1.83171,5.15953 1.83216,5.57203 4.4e-4,0.4125 -1.74732,0.75 -3.88393,0.75 l -3.88474,0 2.05258,-5.57203 z m 30.17428,3.7091 c -12.50768,-7.62742 -12.55596,-24.61805 -0.0915,-32.21847 8.75472,-5.33837 26.88871,0.72271 21.14636,7.06793 -1.70172,1.88038 -1.77707,1.8775 -4.55136,-0.17361 -3.68766,-2.72641 -10.18904,-2.77533 -13.7897,-0.10378 -5.67226,4.20861 -5.96571,13.3173 -0.59165,18.36511 3.14006,2.94944 9.85761,3.17983 13.97894,0.47943 2.58886,-1.69629 2.75351,-1.6862 4.7296,0.2899 1.74729,1.74728 1.85026,2.28488 0.70251,3.66783 -3.90259,4.70234 -15.75735,6.14786 -21.53315,2.62566 z m 27.54262,-16.13707 0,-18.000003 3.5,0 3.5,0 0.0487,7.750003 0.0487,7.75 7.29694,-7.81504 c 7.05266,-7.553417 7.43422,-7.804497 11.39762,-7.500003 l 4.10069,0.315043 -6.99445,7.84251 -6.99445,7.84252 2.36272,3.15748 c 1.2995,1.73662 4.51065,6.19499 7.1359,9.90749 l 4.77319,6.75 -4.33778,-0.0162 c -4.22921,-0.0158 -4.46051,-0.19104 -9.24147,-7 -2.69703,-3.84107 -5.21478,-6.98376 -5.59501,-6.98376 -2.15683,0 -4.0013,4.06976 -4.0013,8.82874 l 0,5.17126 -3.5,0 -3.5,0 0,-18 z"
         id="path3497"
         inkscape:connector-curvature="0" />
    </g>
  </g>
</svg>
